<svg width="324" height="360" viewBox="0 0 324 360" fill="none" xmlns="http://www.w3.org/2000/svg">
<rect width="324" height="360" rx="16" fill="#EEE9E2"/>
<path d="M62.3207 87.6304L42.0113 260.249C41.8708 261.375 43.0655 262.149 44.0493 261.516L57.1204 253.493C58.7367 252.508 60.8449 252.931 61.899 254.549L78.273 278.968L85.0897 176.368L62.3207 87.6304Z" fill="#EEE9E2" stroke="#2C3647" stroke-miterlimit="10" stroke-linecap="round" stroke-linejoin="round"/>
<path d="M62.1795 91.9221L43.8379 255.885C43.627 257.504 45.4542 258.489 46.7191 257.574L56.2765 250.537C58.3847 248.989 61.3363 249.552 62.7417 251.733L73.9154 268.763C74.4776 269.607 75.8128 269.185 75.7425 268.13L62.7417 91.9221C62.7417 91.5702 62.1795 91.5702 62.1795 91.9221Z" fill="#EEE9E2" stroke="#2C3647" stroke-miterlimit="10" stroke-linecap="round" stroke-linejoin="round"/>
<path d="M59.0186 249.622C60.4944 249.622 61.8999 250.326 62.7432 251.663L73.9169 268.693C74.4791 269.537 75.8143 269.115 75.744 268.059L74.1277 246.526L58.7375 249.552C58.8781 249.552 58.9484 249.622 59.0186 249.622Z" fill="#EEE9E2" stroke="#2C3647" stroke-miterlimit="10" stroke-linecap="round" stroke-linejoin="round"/>
<path d="M62.7412 87.4888L78.2719 278.896L259.088 244.415L216.572 95.0888L62.7412 87.4888Z" fill="#EEE9E2" stroke="#2C3647" stroke-miterlimit="10" stroke-linecap="round" stroke-linejoin="round"/>
<path d="M71.1044 91.6406L81.7861 268.763L251.851 237.8L216.011 100.155L71.1044 91.6406Z" fill="white" stroke="#2C3647" stroke-miterlimit="10" stroke-linecap="round" stroke-linejoin="round"/>
<path d="M81.5063 178.83L89.5879 262.782L244.122 234.634L229.786 171.511L81.5063 178.83Z" fill="white" stroke="#2C3647" stroke-miterlimit="10" stroke-linecap="round" stroke-linejoin="round"/>
<path d="M111.301 258.628L108.772 231.606" stroke="#2C3647" stroke-miterlimit="10" stroke-linecap="round" stroke-linejoin="round"/>
<path d="M134.982 254.406L132.523 231.958" stroke="#2C3647" stroke-miterlimit="10" stroke-linecap="round" stroke-linejoin="round"/>
<path d="M158.173 249.902L155.292 231.958" stroke="#2C3647" stroke-miterlimit="10" stroke-linecap="round" stroke-linejoin="round"/>
<path d="M182.068 245.821L178.625 224.358" stroke="#2C3647" stroke-miterlimit="10" stroke-linecap="round" stroke-linejoin="round"/>
<path d="M203.079 242.022L200.127 221.122" stroke="#2C3647" stroke-miterlimit="10" stroke-linecap="round" stroke-linejoin="round"/>
<path d="M223.248 238.292L218.891 213.099" stroke="#2C3647" stroke-miterlimit="10" stroke-linecap="round" stroke-linejoin="round"/>
<path d="M67.2408 89.6704L215.239 97.6926C215.239 97.6926 229.645 140.9 243.981 165.319C258.317 189.737 282 188.119 282 188.119C282 188.119 227.748 217.815 185.513 233.648C141.521 250.115 103.432 253.071 103.432 253.071C103.432 253.071 68.6463 205.571 67.2408 89.6704Z" fill="white" stroke="#2C3647" stroke-miterlimit="10" stroke-linecap="round" stroke-linejoin="round"/>
<path d="M84.1749 82C81.4342 82 79.4665 84.463 78.834 88.263L81.645 88.4037C82.0667 86.2222 82.9802 84.8148 84.1749 84.8148C85.6507 84.8148 87.267 87.137 87.267 90.5148C87.267 93.8926 85.6507 96.2148 84.1749 96.2148C83.4019 96.2148 82.7694 96.8482 82.7694 97.6222C82.7694 98.3963 83.4019 99.0296 84.1749 99.0296C87.4778 99.0296 90.078 95.3 90.078 90.5148C90.0077 85.7296 87.4778 82 84.1749 82Z" fill="white" stroke="#2C3647" stroke-miterlimit="10"/>
<path d="M88.1832 92.7666C88.0426 93.2592 87.9021 93.7518 87.6913 94.2444" stroke="#2C3647" stroke-width="0.75" stroke-miterlimit="10" stroke-linecap="round" stroke-linejoin="round"/>
<path d="M80.1717 86.9958C80.1717 86.9958 81.2258 83.1958 84.3179 83.4069C86.7775 83.5477 88.8155 87.2069 88.4641 91.0773" stroke="#2C3647" stroke-width="0.75" stroke-miterlimit="10" stroke-linecap="round" stroke-linejoin="round"/>
<path d="M108.56 83.2661C105.82 83.2661 103.852 85.7291 103.219 89.5291L106.03 89.6698C106.452 87.4883 107.366 86.0809 108.56 86.0809C110.036 86.0809 111.652 88.4032 111.652 91.7809C111.652 95.1587 110.036 97.4809 108.56 97.4809C107.787 97.4809 107.155 98.1143 107.155 98.8884C107.155 99.6624 107.787 100.296 108.56 100.296C111.863 100.296 114.463 96.5661 114.463 91.7809C114.463 86.9957 111.863 83.2661 108.56 83.2661Z" fill="white" stroke="#2C3647" stroke-miterlimit="10"/>
<path d="M112.639 94.0327C112.499 94.5253 112.358 95.0179 112.147 95.5105" stroke="#2C3647" stroke-width="0.75" stroke-miterlimit="10" stroke-linecap="round" stroke-linejoin="round"/>
<path d="M104.628 88.2624C104.628 88.2624 105.682 84.4624 108.774 84.6735C111.234 84.8143 113.272 88.4735 112.92 92.3439" stroke="#2C3647" stroke-width="0.75" stroke-miterlimit="10" stroke-linecap="round" stroke-linejoin="round"/>
<path d="M157.402 85.729C154.662 85.729 152.694 88.192 152.061 91.992L154.872 92.1327C155.294 89.9512 156.208 88.5438 157.402 88.5438C158.878 88.5438 160.494 90.866 160.494 94.2438C160.494 97.6216 158.878 99.9438 157.402 99.9438C156.629 99.9438 155.997 100.577 155.997 101.351C155.997 102.125 156.629 102.759 157.402 102.759C160.705 102.759 163.305 99.029 163.305 94.2438C163.305 89.4586 160.705 85.729 157.402 85.729Z" fill="white" stroke="#2C3647" stroke-miterlimit="10"/>
<path d="M161.479 96.4961C161.338 96.9887 161.198 97.4813 160.987 97.9739" stroke="#2C3647" stroke-width="0.75" stroke-miterlimit="10" stroke-linecap="round" stroke-linejoin="round"/>
<path d="M153.466 90.7263C153.466 90.7263 154.52 86.9263 157.612 87.1374C160.072 87.2781 162.11 90.9374 161.758 94.8078" stroke="#2C3647" stroke-width="0.75" stroke-miterlimit="10" stroke-linecap="round" stroke-linejoin="round"/>
<path d="M182.279 86.7852C179.539 86.7852 177.571 89.2481 176.938 93.0481L179.749 93.1889C180.171 91.0074 181.085 89.6 182.279 89.6C183.755 89.6 185.371 91.9222 185.371 95.3C185.371 98.6778 183.755 101 182.279 101C181.506 101 180.874 101.633 180.874 102.407C180.874 103.181 181.506 103.815 182.279 103.815C185.582 103.815 188.182 100.085 188.182 95.3C188.182 90.5148 185.582 86.7852 182.279 86.7852Z" fill="white" stroke="#2C3647" stroke-miterlimit="10"/>
<path d="M186.284 97.5518C186.143 98.0444 186.003 98.5369 185.792 99.0295" stroke="#2C3647" stroke-width="0.75" stroke-miterlimit="10" stroke-linecap="round" stroke-linejoin="round"/>
<path d="M178.273 91.7819C178.273 91.7819 179.327 87.9819 182.419 88.1931C184.879 88.3338 186.917 91.9931 186.565 95.8634" stroke="#2C3647" stroke-width="0.75" stroke-miterlimit="10" stroke-linecap="round" stroke-linejoin="round"/>
<path d="M206.172 88.0518C203.432 88.0518 201.464 90.5147 200.832 94.3147L203.643 94.4555C204.064 92.274 204.978 90.8666 206.172 90.8666C207.648 90.8666 209.264 93.1888 209.264 96.5666C209.264 99.9444 207.648 102.267 206.172 102.267C205.399 102.267 204.767 102.9 204.767 103.674C204.767 104.448 205.399 105.081 206.172 105.081C209.475 105.081 212.075 101.352 212.075 96.5666C212.075 91.7814 209.475 88.0518 206.172 88.0518Z" fill="white" stroke="#2C3647" stroke-miterlimit="10"/>
<path d="M210.178 98.8184C210.038 99.311 209.897 99.8035 209.686 100.296" stroke="#2C3647" stroke-width="0.75" stroke-miterlimit="10" stroke-linecap="round" stroke-linejoin="round"/>
<path d="M202.169 93.0476C202.169 93.0476 203.223 89.2476 206.315 89.4587C208.774 89.5994 210.812 93.2587 210.461 97.1291" stroke="#2C3647" stroke-width="0.75" stroke-miterlimit="10" stroke-linecap="round" stroke-linejoin="round"/>
<path d="M239.129 165.46C228.939 148.149 218.257 120.774 214.463 110.641L82.1356 105.293C82.0653 203.178 111.651 243.641 111.651 243.641C111.651 243.641 145.383 241.038 184.245 226.471C221.56 212.538 266.115 189.034 266.115 189.034C266.115 189.034 251.778 187.063 239.129 165.46Z" fill="white" stroke="#2C3647" stroke-miterlimit="10" stroke-linecap="round" stroke-linejoin="round"/>
<path d="M214.392 110.641L82.1354 105.293C82.1354 114.934 82.4165 124.012 82.9085 132.526L222.614 131.189C219.03 122.604 216.079 115.004 214.392 110.641Z" fill="#EEE9E2" stroke="#2C3647" stroke-miterlimit="10" stroke-linecap="round" stroke-linejoin="round"/>
<path d="M216.784 139.845L223.038 139.634" stroke="#2C3647" stroke-width="3" stroke-miterlimit="10" stroke-linecap="round" stroke-linejoin="round"/>
<path d="M198.371 140.478L212.074 139.985" stroke="#2C3647" stroke-width="3" stroke-miterlimit="10" stroke-linecap="round" stroke-linejoin="round"/>
<path d="M176.165 141.252L193.734 140.619" stroke="#2C3647" stroke-miterlimit="10" stroke-linecap="round" stroke-linejoin="round"/>
<path d="M153.465 142.026L172.229 141.393" stroke="#2C3647" stroke-miterlimit="10" stroke-linecap="round" stroke-linejoin="round"/>
<path d="M131.61 142.731L148.827 142.168" stroke="#2C3647" stroke-miterlimit="10" stroke-linecap="round" stroke-linejoin="round"/>
<path d="M108.56 143.504L125.777 142.941" stroke="#2C3647" stroke-miterlimit="10" stroke-linecap="round" stroke-linejoin="round"/>
<path d="M88.2516 144.207L104.274 143.645" stroke="#2C3647" stroke-miterlimit="10" stroke-linecap="round" stroke-linejoin="round"/>
<path d="M85.6506 159.337L231.189 150.4" stroke="#2C3647" stroke-miterlimit="10" stroke-linecap="round" stroke-linejoin="round"/>
<path d="M108.631 158.071C108.631 158.071 111.02 196.845 136.53 239.841" stroke="#2C3647" stroke-miterlimit="10" stroke-linecap="round" stroke-linejoin="round"/>
<path d="M132.102 156.523C132.102 156.523 134.772 200.856 162.742 233.297" stroke="#2C3647" stroke-miterlimit="10" stroke-linecap="round" stroke-linejoin="round"/>
<path d="M153.396 155.186C153.396 155.186 154.802 196 186.214 225.345" stroke="#2C3647" stroke-miterlimit="10" stroke-linecap="round" stroke-linejoin="round"/>
<path d="M175.391 154.271C175.391 154.271 178.834 199.66 209.263 215.634" stroke="#2C3647" stroke-miterlimit="10" stroke-linecap="round" stroke-linejoin="round"/>
<path d="M198.513 152.441C198.513 152.441 200.972 186.782 232.104 205.571" stroke="#2C3647" stroke-miterlimit="10" stroke-linecap="round" stroke-linejoin="round"/>
<path d="M216.711 151.315C216.711 151.315 225.074 186.501 248.546 197.901" stroke="#2C3647" stroke-miterlimit="10" stroke-linecap="round" stroke-linejoin="round"/>
<path d="M88.8126 179.323L237.514 162.926" stroke="#2C3647" stroke-miterlimit="10" stroke-linecap="round" stroke-linejoin="round"/>
<path d="M92.6774 196.844C92.6774 196.844 124.442 195.578 244.4 173.481" stroke="#2C3647" stroke-miterlimit="10" stroke-linecap="round" stroke-linejoin="round"/>
<path d="M98.3008 215.352C98.3008 215.352 129.222 218.871 250.375 180.237" stroke="#2C3647" stroke-miterlimit="10" stroke-linecap="round" stroke-linejoin="round"/>
<path d="M104.977 231.537C104.977 231.537 130.767 240.052 257.402 185.796" stroke="#2C3647" stroke-miterlimit="10" stroke-linecap="round" stroke-linejoin="round"/>
<path d="M139.269 124.434L91.6225 123.8C90.8495 123.8 90.1468 123.167 90.0765 122.393L89.6549 118.522C89.5846 117.608 90.2873 116.763 91.2712 116.763L138.355 117.608C139.058 117.608 139.69 118.1 139.831 118.804L140.815 122.463C141.096 123.448 140.323 124.434 139.269 124.434Z" fill="white"/>
<path d="M229.331 104.538H202.364C198.036 104.538 194.54 108.009 194.54 112.307V139.087C194.54 143.385 198.036 146.898 202.406 146.898H221.632L229.913 158.263V146.857C233.991 146.568 237.196 143.22 237.196 139.087V112.307C237.196 108.009 233.659 104.538 229.331 104.538Z" fill="white"/>
<path d="M230.413 159.833L221.341 147.394H202.365C197.745 147.394 194 143.674 194 139.087V112.307C194 107.719 197.745 104 202.365 104H229.331C233.95 104 237.696 107.719 237.696 112.307V139.087C237.696 143.261 234.533 146.774 230.413 147.311V159.833ZM202.365 105.033C198.328 105.033 195.04 108.298 195.04 112.307V139.087C195.04 143.096 198.328 146.361 202.365 146.361H221.882L229.373 156.651V146.361L229.872 146.319C233.701 146.03 236.655 142.848 236.655 139.046V112.307C236.655 108.298 233.368 105.033 229.331 105.033H202.365Z" fill="#2C3647"/>
<path d="M215.306 139.459L204.528 124.003L207.067 122.226L215.015 133.632L226.958 112.39L229.705 113.877L215.306 139.459Z" fill="#FFC01E"/>
</svg>
