<svg width="44" height="56" viewBox="0 0 44 56" fill="none" xmlns="http://www.w3.org/2000/svg">
<path d="M35.3306 0.537598H8.3641C4.03615 0.537598 0.540497 4.0091 0.540497 8.30715V35.0873C0.540497 39.3854 4.03615 42.8982 8.40571 42.8982H27.6318L35.9132 54.2632V42.8569C39.9914 42.5676 43.1958 39.22 43.1958 35.0873V8.30715C43.1958 4.0091 39.6585 0.537598 35.3306 0.537598Z" fill="white"/>
<path d="M36.413 55.8333L27.341 43.3938H8.3646C3.74534 43.3938 0 39.6743 0 35.087V8.30681C0 3.71947 3.74534 0 8.3646 0H35.3311C39.9503 0 43.6957 3.71947 43.6957 8.30681V35.087C43.6957 39.261 40.5329 42.7739 36.413 43.3111V55.8333ZM8.3646 1.03319C4.32795 1.03319 1.04037 4.29805 1.04037 8.30681V35.087C1.04037 39.0957 4.32795 42.3606 8.3646 42.3606H27.882L35.3727 52.6511V42.3606L35.8721 42.3193C39.7006 42.03 42.6553 38.8478 42.6553 35.0456V8.30681C42.6553 4.29805 39.3677 1.03319 35.3311 1.03319H8.3646Z" fill="#2C3647"/>
<path d="M21.3063 35.4591L10.528 20.0027L13.0665 18.2256L21.015 29.6319L32.9584 8.38965L35.705 9.87744L21.3063 35.4591Z" fill="#FFC01E"/>
</svg>
