<svg width="240" height="243" viewBox="0 0 240 243" fill="none" xmlns="http://www.w3.org/2000/svg">
<path d="M1.13815 62.7407C36.37 62.7424 73.2606 62.9178 111.476 63.0995L115.789 63.12C155.561 63.3089 196.746 63.4978 238.969 63.4993C236.213 120.977 235.457 184.164 236.578 241.641C182.505 239.436 126.006 240.231 73.4259 240.972C48.66 241.321 24.7633 241.657 2.39856 241.662C2.39516 180.438 1.76753 121.335 1.13815 62.7407Z" fill="white" stroke="#2C3647"/>
<path d="M53.5025 149.629C56.9082 149.657 60.2649 149.684 63.5277 149.723C63.1767 157.659 63.0516 163.029 63.0442 168.322C56.6149 168.244 49.4997 168.273 42.6337 168.3C39.395 168.314 36.2118 168.326 33.1822 168.328C33.4054 163.398 33.4026 156.511 33.1748 149.363C39.9136 149.52 46.8031 149.575 53.5025 149.629Z" fill="white" stroke="#2C3647"/>
<path d="M35.9999 164.285C37.0285 163.257 52.4285 156.142 59.9999 152.714" stroke="#2C3647" stroke-linecap="round"/>
<path d="M59.9999 164.285C58.9714 163.257 43.5714 156.142 35.9999 152.714" stroke="#2C3647" stroke-linecap="round"/>
<path d="M53.5025 186.549C56.9082 186.577 60.2649 186.604 63.5277 186.643C63.1767 194.579 63.0516 199.949 63.0442 205.241C56.6149 205.164 49.4997 205.193 42.6337 205.22C39.395 205.233 36.2118 205.246 33.1822 205.248C33.4054 200.318 33.4026 193.431 33.1748 186.283C39.9136 186.44 46.8031 186.495 53.5025 186.549Z" fill="white" stroke="#2C3647"/>
<path d="M35.9999 201.285C37.0285 200.257 52.4285 193.142 59.9999 189.714" stroke="#2C3647" stroke-linecap="round"/>
<path d="M59.9999 201.285C58.9714 200.257 43.5714 193.142 35.9999 189.714" stroke="#2C3647" stroke-linecap="round"/>
<path d="M66.2779 89.7982C78.3917 89.8917 90.3956 89.9851 102.004 90.1692C101.028 107.965 100.773 119.67 100.766 131.529C85.5491 131.365 68.67 131.424 52.4556 131.48C44.6968 131.507 37.0902 131.533 29.8907 131.534C30.376 120.784 30.6098 105.31 29.8911 89.4271C41.829 89.6097 53.9435 89.7031 65.9527 89.7957L66.2779 89.7982Z" fill="white" stroke="#2C3647"/>
<path d="M103.694 221.685L103.682 221.685H103.671C101.782 221.685 99.8443 221.556 98.1714 220.84C96.4844 220.118 95.0221 218.715 94.7999 217.065C94.5815 215.192 95.9143 213.331 97.7254 212.246C99.5014 211.181 101.646 210.929 103.805 210.676L103.853 210.67C119.384 209.031 135.041 209.031 150.573 210.67C151.804 210.84 153.089 211.667 154.044 212.83C155.001 213.995 155.563 215.418 155.451 216.705L155.451 216.712L155.45 216.72C155.337 218.75 153.738 220.511 151.825 221.347C149.897 222.19 147.714 222.317 145.418 222.444C132.679 223.022 119.939 222.434 107.172 221.845C106.013 221.791 104.853 221.738 103.694 221.685Z" fill="#FFC01E" stroke="#2C3647"/>
<path d="M92.9999 187H163" stroke="#2C3647" stroke-linecap="round"/>
<path d="M91.9999 150H162" stroke="#2C3647" stroke-linecap="round"/>
<path d="M91.9999 154H162" stroke="#2C3647" stroke-linecap="round"/>
<path d="M118 95H188" stroke="#2C3647" stroke-linecap="round"/>
<path d="M118 110H149" stroke="#2C3647" stroke-linecap="round"/>
<path d="M157 110L188 110" stroke="#2C3647" stroke-linecap="round"/>
<path d="M118 125H188" stroke="#2C3647" stroke-linecap="round"/>
<g clip-path="url(#clip0_3007_4351)">
<path d="M143.196 27.5058C137.429 19.0126 132.456 11.5435 126.94 3.56427C115.526 11.3139 104.272 19.4438 92.7681 27.0598C98.1728 35.3103 103.53 42.9093 108.888 50.8007C120.301 43.051 131.783 35.2555 143.196 27.5058Z" fill="#EEE9E2"/>
<path d="M109.115 51.1347C108.912 51.2723 108.687 51.2302 108.55 51.0296C106.734 48.3546 104.963 45.7464 103.192 43.1383C99.6737 38.1016 96.041 32.7515 92.4305 27.2887C92.2943 27.0881 92.3385 26.8626 92.5412 26.725C99.2051 22.298 105.913 17.6455 112.351 13.1765C117.033 9.89969 121.85 6.53118 126.713 3.22955C126.916 3.09198 127.142 3.13402 127.278 3.33465C130.933 8.57198 134.338 13.5877 137.858 18.9167C139.674 21.5917 141.581 24.4005 143.534 27.2762C143.67 27.4768 143.626 27.7023 143.423 27.8398C137.75 31.6917 132.01 35.5895 126.337 39.4414C120.529 43.385 114.856 47.2369 109.115 51.1347ZM93.2654 27.2104C96.8305 32.6063 100.394 37.7099 103.845 42.7924C105.526 45.2668 107.251 47.8081 108.977 50.3494C114.582 46.5433 120.255 42.6914 125.86 38.8854C131.466 35.0793 137.071 31.2733 142.609 27.5131C140.702 24.7043 138.886 22.0293 137.115 19.4211C133.619 14.2717 130.326 9.27702 126.762 4.17344C122.034 7.38337 117.352 10.6602 112.738 13.8911C106.435 18.2684 99.8617 22.8292 93.2654 27.2104Z" fill="#2C3647"/>
<path d="M92.904 27.2606C102.342 28.0824 111.691 29.0627 121.04 30.0431C123.285 21.2882 125.259 12.4245 126.94 3.56451L92.904 27.2606Z" fill="#EEE9E2"/>
<path d="M121.267 30.3771C121.2 30.423 121.132 30.4688 121.019 30.4478L117.18 30.0255C109.142 29.2305 100.944 28.3476 92.8834 27.6653C92.7251 27.5774 92.5667 27.4895 92.5435 27.3099C92.5202 27.1303 92.6098 26.9717 92.7449 26.88L126.713 3.22976C126.848 3.13805 127.029 3.11322 127.187 3.20111C127.345 3.28901 127.369 3.46861 127.346 3.58135C125.666 12.4413 123.737 21.372 121.492 30.1268C121.402 30.2854 121.335 30.3313 121.267 30.3771ZM94.077 26.9527C101.777 27.6846 109.635 28.5044 117.2 29.3281L120.7 29.6873C122.857 21.3834 124.697 12.9037 126.289 4.49465L94.077 26.9527Z" fill="#2C3647"/>
<g opacity="0.1294">
<path opacity="0.1294" d="M127.102 4.52862C126.673 4.62415 126.539 5.0082 126.563 5.1878C126.563 5.1878 126.541 5.30054 126.586 5.36741C126.542 5.59288 126.543 5.88522 126.499 6.11068C126.367 7.07941 126.01 8.0061 125.923 9.04171C125.525 11.0709 125.127 13.1001 124.774 15.1961C124.465 17.0667 124.089 18.9831 123.487 20.8575C123.241 21.5129 122.819 23.0701 122.462 24.2892C122.44 24.4019 122.373 24.4477 122.35 24.5605C122.15 25.2827 122.194 25.0573 122.062 25.7336C121.661 27.1781 121.419 28.7105 121.018 30.155C119.663 29.9028 118.285 29.7633 116.908 29.6238C113.317 29.1308 109.659 28.6836 106.023 28.416C103.72 28.2211 101.394 27.8466 99.1583 27.6058C97.7354 27.3994 96.3125 27.193 94.8676 27.0994C95.0934 27.1414 94.3483 27.0611 94.1899 26.9732C94.0315 26.8853 94.0315 26.8853 93.9186 26.8643C93.8057 26.8433 93.7381 26.8892 93.6252 26.8681C93.1513 26.8968 92.8148 27.4184 92.9067 27.8445C93.0662 28.2247 93.4505 28.3547 93.8114 28.305C94.2399 28.2095 95.5056 28.6203 96.2962 28.7674C99.6391 29.3311 103.094 29.6235 106.481 29.9618C108.671 30.1357 110.772 30.4682 112.894 30.688C114.137 30.9192 115.401 31.0377 116.644 31.2689C118.157 31.609 119.625 31.8823 121.207 32.1766C121.5 32.1727 121.748 32.1021 121.951 31.9645C122.266 31.8479 122.536 31.6645 122.557 31.2594C123.027 30.0614 123.157 28.8004 123.333 27.6062C123.509 26.412 123.664 25.6229 123.864 24.9006C124.197 23.502 124.887 20.8843 125.398 18.8761C125.753 17.3648 125.995 15.8324 126.238 14.3C126.614 12.3836 126.922 10.513 127.186 8.57551C127.407 7.44819 127.54 6.7718 127.648 5.62347C127.647 5.33113 127.759 5.05981 127.644 4.74645C127.554 4.6127 127.282 4.50378 127.102 4.52862Z" fill="#2C3647"/>
</g>
<path d="M109.205 50.9759C109.137 51.0217 108.957 51.0466 108.844 51.0256C108.618 50.9835 108.482 50.7829 108.526 50.5574C110.146 43.4974 112.014 36.3666 114.153 29.3448C114.197 29.1193 114.445 29.0486 114.671 29.0906C114.897 29.1327 114.966 29.3792 114.922 29.6046C112.804 36.5137 110.937 43.6445 109.362 50.7714C109.34 50.8842 109.272 50.93 109.205 50.9759Z" fill="#2C3647"/>
<path d="M143.174 27.6183C143.106 27.6641 143.039 27.71 142.926 27.6889C136.106 26.9456 129.218 25.9557 122.532 24.8283C122.306 24.7862 122.17 24.5856 122.214 24.3601C122.258 24.1347 122.461 23.9971 122.687 24.0392C129.373 25.1666 136.194 26.2023 143.013 26.9457C143.239 26.9877 143.375 27.1883 143.331 27.4138C143.309 27.5265 143.242 27.5724 143.174 27.6183Z" fill="#2C3647"/>
<g opacity="0.1294">
<path opacity="0.1294" d="M141.431 26.359C141.431 26.359 141.364 26.4048 141.296 26.4507C140.936 26.7927 139.81 27.4595 138.932 28.0556C136.095 29.6893 133.417 31.7031 130.761 33.6042C128.375 35.3219 125.876 37.0186 123.49 38.7363C121.329 40.2037 118.964 41.5163 116.803 42.9837C114.912 44.2677 113.112 45.6854 111.221 46.9694C110.545 47.4279 109.87 47.8865 109.195 48.345C108.857 48.5743 108.361 48.7157 108.114 49.0787C107.553 49.8506 108.573 50.9168 109.383 50.3666C112.401 48.7081 115.011 46.4478 117.847 44.5218C120.008 43.0544 122.238 41.8335 124.354 40.2993C128.045 37.5976 131.827 35.0296 135.405 32.3069C137.094 31.1605 138.85 29.9683 140.583 28.8887C140.989 28.6136 141.507 28.3595 141.912 28.0844C141.98 28.0385 142.092 28.0595 142.047 27.9926C142.476 27.8971 142.835 27.5551 142.811 27.0832C142.762 26.1393 141.904 26.038 141.431 26.359Z" fill="#2C3647"/>
</g>
</g>
<g clip-path="url(#clip1_3007_4351)">
<path d="M226.546 66.275C220.683 55.0993 215.647 45.285 210.018 34.7719C195 42.651 180.124 51.0166 165.013 58.7196C170.468 69.5485 175.955 79.575 181.402 89.9587C196.42 82.0796 211.528 74.154 226.546 66.275Z" fill="white"/>
<path d="M181.633 90.3986C181.366 90.5385 181.096 90.4557 180.958 90.1918C179.111 86.6719 177.311 83.24 175.51 79.8081C171.913 73.1669 168.219 66.1271 164.569 58.9527C164.43 58.6887 164.516 58.4195 164.782 58.2796C173.537 53.7987 182.378 49.0486 190.863 44.4849C197.037 41.1334 203.389 37.6887 209.788 34.3319C210.054 34.192 210.324 34.2748 210.463 34.5388C214.199 41.444 217.661 48.0438 221.219 55.0422C223.066 58.5621 225.005 62.2579 226.99 66.0418C227.129 66.3058 227.043 66.5751 226.777 66.7149C219.312 70.6311 211.758 74.594 204.294 78.5102C196.651 82.5196 189.186 86.4358 181.633 90.3986ZM165.599 58.9731C169.204 66.0595 172.848 72.7887 176.356 79.4765C178.064 82.7324 179.819 86.0763 181.573 89.4202C188.949 85.5506 196.413 81.6344 203.789 77.7648C211.165 73.8952 218.541 70.0256 225.828 66.2027C223.889 62.5068 222.042 58.9869 220.242 55.555C216.687 48.7792 213.36 42.2208 209.716 35.4916C203.495 38.7551 197.321 42.1066 191.235 45.4115C182.928 49.8819 174.266 54.5388 165.599 58.9731Z" fill="#2C3647"/>
<path d="M165.151 58.9836C176.566 61.2994 187.848 63.7965 199.131 66.2936C203.09 55.9123 206.734 45.3601 210.018 34.7719L165.151 58.9836Z" fill="white"/>
<path d="M199.362 66.7334C199.273 66.7801 199.184 66.8267 199.049 66.7853L194.419 65.7358C184.71 63.6472 174.821 61.4292 165.07 59.4752C164.888 59.3458 164.707 59.2165 164.704 58.9939C164.7 58.7712 164.832 58.59 165.01 58.4968L209.787 34.3317C209.965 34.2384 210.189 34.2332 210.37 34.3626C210.551 34.4919 210.555 34.7146 210.512 34.8492C207.228 45.4374 203.631 56.0776 199.671 66.459C199.54 66.6402 199.451 66.6868 199.362 66.7334ZM166.627 58.7707C175.93 60.7351 185.414 62.829 194.54 64.8867L198.765 65.8121C202.554 55.9692 205.98 45.8675 209.094 35.8177L166.627 58.7707Z" fill="#2C3647"/>
<g opacity="0.1294">
<path opacity="0.1294" d="M210.082 35.9728C209.545 36.0299 209.328 36.4804 209.332 36.703C209.332 36.703 209.289 36.8376 209.335 36.9256C209.25 37.1949 209.21 37.5521 209.125 37.8214C208.83 38.9863 208.264 40.0685 208.015 41.3214C207.246 43.7446 206.478 46.1677 205.755 48.6788C205.118 50.9207 204.392 53.2093 203.396 55.415C203.005 56.1814 202.272 58.0247 201.668 59.4641C201.625 59.5987 201.536 59.6453 201.493 59.7799C201.148 60.6343 201.234 60.365 200.977 61.1728C200.287 62.8814 199.778 64.7195 199.088 66.4281C197.468 65.9316 195.805 65.5697 194.142 65.2078C189.824 64.1064 185.418 63.0516 181.015 62.2195C178.229 61.6612 175.439 60.8803 172.742 60.2754C171.033 59.8255 169.324 59.3756 167.572 59.0603C167.842 59.1431 166.943 58.9415 166.762 58.8121C166.58 58.6827 166.58 58.6827 166.445 58.6413C166.31 58.6 166.221 58.6466 166.086 58.6052C165.504 58.5743 165.02 59.1647 165.073 59.6979C165.215 60.1845 165.666 60.3966 166.114 60.3861C166.651 60.329 168.14 61.0068 169.085 61.2964C173.09 62.4497 177.269 63.2871 181.359 64.1711C184.01 64.688 186.529 65.3862 189.091 65.9497C190.577 66.4049 192.105 66.7254 193.59 67.1805C195.392 67.8064 197.147 68.3443 199.038 68.9235C199.396 68.9597 199.709 68.9078 199.976 68.7679C200.377 68.6694 200.733 68.483 200.815 67.9911C201.555 66.593 201.889 65.0709 202.27 63.6367C202.651 62.2025 202.95 61.2602 203.295 60.4058C203.896 58.7438 205.102 55.6423 206.006 53.2605C206.65 51.4639 207.159 49.6258 207.668 47.7878C208.393 45.4993 209.031 43.2574 209.621 40.9275C210.048 39.5813 210.305 38.7736 210.597 37.386C210.636 37.0288 210.81 36.7129 210.714 36.3143C210.622 36.1383 210.306 35.9676 210.082 35.9728Z" fill="#2C3647"/>
</g>
<path d="M181.764 90.2174C181.675 90.264 181.451 90.2692 181.316 90.2279C181.046 90.1451 180.908 89.8811 180.993 89.6119C183.953 81.2137 187.226 72.7636 190.815 64.4842C190.901 64.215 191.214 64.1631 191.484 64.2459C191.754 64.3286 191.803 64.6392 191.718 64.9085C188.172 73.0532 184.899 81.5033 181.985 89.9895C181.942 90.1241 181.853 90.1708 181.764 90.2174Z" fill="#2C3647"/>
<path d="M226.503 66.4096C226.414 66.4562 226.326 66.5028 226.19 66.4615C217.964 64.6054 209.688 62.4387 201.678 60.1321C201.408 60.0494 201.27 59.7854 201.355 59.5162C201.44 59.2469 201.707 59.1071 201.977 59.1898C209.987 61.4964 218.174 63.7097 226.401 65.5658C226.671 65.6485 226.809 65.9125 226.724 66.1817C226.681 66.3164 226.592 66.363 226.503 66.4096Z" fill="#2C3647"/>
<g opacity="0.1294">
<path opacity="0.1294" d="M224.549 64.6292C224.549 64.6292 224.46 64.6758 224.371 64.7225C223.884 65.0902 222.416 65.7481 221.261 66.3542C217.568 67.9551 214.017 70.0425 210.508 71.9954C207.355 73.7618 204.067 75.4868 200.914 77.2531C198.07 78.745 194.999 80.0195 192.156 81.5114C189.667 82.8168 187.272 84.2982 184.783 85.6036C183.895 86.0698 183.006 86.5361 182.117 87.0023C181.673 87.2354 181.048 87.3391 180.696 87.7482C179.903 88.613 181 90.0571 182.067 89.4977C185.984 87.8916 189.485 85.4935 193.218 83.5354C196.061 82.0435 198.955 80.8622 201.752 79.2823C206.636 76.4955 211.613 73.8847 216.362 71.0565C218.583 69.891 220.894 68.6789 223.162 67.6013C223.695 67.3216 224.363 67.0832 224.896 66.8035C224.985 66.7569 225.12 66.7983 225.074 66.7103C225.611 66.6532 226.098 66.2854 226.134 65.7056C226.205 64.5459 225.171 64.3029 224.549 64.6292Z" fill="#2C3647"/>
</g>
</g>
<g clip-path="url(#clip2_3007_4351)">
<path d="M48.5106 41.2349L48.0055 36.8848L51.1826 33.6671L45.7247 28.0462C44.6739 29.2437 43.623 30.4412 42.5721 31.6387C42.5558 31.7283 42.4499 31.8016 42.3603 31.7853C42.2544 31.8586 42.1648 31.8423 41.9856 31.8097C40.5519 31.549 39.2241 31.215 37.7904 30.9543C37.3179 29.4799 36.9188 28.1113 36.3404 26.7102C36.2671 26.6043 36.2834 26.5147 36.1205 26.3925C36.0308 26.3762 35.9412 26.3599 35.8353 26.4332C33.9536 27.1093 32.1451 27.8913 30.2634 28.5674L30.1575 28.6408C30.0516 28.7141 30.1086 28.9096 30.1819 29.0155C30.5973 30.2944 31.135 31.4105 31.8518 32.5591C30.8743 33.8624 29.8397 34.9703 28.7155 36.0619C28.4874 36.2981 28.1534 36.6076 27.7787 36.6321C27.4936 36.6728 27.1515 36.518 26.8989 36.3795C25.7992 35.8093 24.6995 35.2391 23.6161 34.5792C22.2068 36.7298 21.5388 39.3854 21.7098 42.0085C21.7668 42.204 26.182 42.3588 26.182 42.3588L27.9497 47.4013L25.2533 50.5212L29.3507 54.969L32.5278 51.7513L36.9022 52.6393L37.9042 56.802L44.8691 55.6616L43.9894 51.336L47.0198 47.9065L51.4757 48.3464L52.6488 42.913L48.5106 41.2349ZM40.6984 41.9435C40.7554 42.139 40.5111 42.4648 40.3889 42.6278C40.2667 42.7907 40.2504 42.8803 40.1282 43.0432C39.9001 43.2794 39.672 43.5157 39.3706 43.646C38.8411 44.0126 38.2546 44.1836 37.5784 44.3384C37.2933 44.3791 37.0082 44.4199 36.829 44.3873C36.6498 44.3547 36.3647 44.3954 36.2017 44.2732C36.0225 44.2406 35.9492 44.1347 35.77 44.1022C36.1284 44.1673 35.77 44.1022 35.5908 44.0696C34.9961 43.7763 34.377 43.1083 34.2222 42.4322C34.1082 42.0412 34.0105 41.5606 34.0919 41.1125C34.1571 40.7541 34.3282 40.3223 34.5726 39.9965C34.8495 39.4914 35.1998 39.0923 35.5501 38.6931C36.0063 38.2207 36.5521 37.7645 37.1386 37.5934C37.7251 37.4224 38.3687 37.4468 38.8574 37.8134C39.1426 37.7727 39.3381 37.7156 39.5906 37.8541C40.006 38.1148 40.2423 38.3429 40.5355 38.7665C40.7392 39.1738 40.8695 39.4752 40.9673 39.9558C41.0406 40.0617 41.008 40.241 40.9917 40.3306C40.9754 40.4202 40.9591 40.5098 41.0324 40.6157C41.0161 40.7053 40.9835 40.8845 41.0569 40.9904L41.0732 40.9008C41.0894 40.8112 41.0894 40.8112 41.0732 40.9008C41.0569 40.9904 41.0243 41.1696 41.0976 41.2755C41.0813 41.3651 41.0813 41.3651 41.065 41.4547C40.7473 41.6747 40.7147 41.8539 40.6984 41.9435Z" fill="#EEE9E2"/>
<path d="M28.528 42.6931C28.4384 42.6768 28.3651 42.5709 28.3814 42.4813C30.418 38.4083 32.65 34.2782 35.1184 30.3763C35.1347 30.2866 35.2243 30.3029 35.3139 30.3192C35.4035 30.3355 35.3872 30.4251 35.3709 30.5147C32.9922 34.433 30.6868 38.4572 28.6502 42.5302C28.6339 42.6198 28.6176 42.7094 28.528 42.6931Z" fill="#2C3647"/>
<path d="M30.296 43.6625C30.2064 43.6462 30.1331 43.5403 30.1494 43.4507C32.0637 39.5406 34.3203 35.7853 36.7967 32.3476C36.813 32.258 36.9026 32.2743 36.9922 32.2906C37.0818 32.3069 37.0655 32.3965 37.0492 32.4861C34.5728 35.9238 32.3163 39.6791 30.4019 43.5892C30.4752 43.6951 30.3856 43.6788 30.296 43.6625Z" fill="#2C3647"/>
<path d="M28.1454 51.4175C28.0558 51.4013 27.9825 51.2954 27.9988 51.2057L32.5525 43.9802C32.5688 43.8906 32.6584 43.9069 32.748 43.9232C32.8376 43.9395 32.8213 44.0291 32.805 44.1187L28.2513 51.3442C28.3246 51.4501 28.235 51.4338 28.1454 51.4175Z" fill="#2C3647"/>
<path d="M32.6664 50.4805C32.5768 50.4642 32.5768 50.4642 32.6664 50.4805C32.5768 50.4642 32.5035 50.3583 32.5198 50.2687L35.1266 46.1142C35.1429 46.0246 35.2325 46.0409 35.3221 46.0572C35.4117 46.0735 35.3954 46.1631 35.3791 46.2527L32.7723 50.4072C32.756 50.4968 32.6664 50.4805 32.6664 50.4805Z" fill="#2C3647"/>
<path d="M38.5644 36.3717C38.4748 36.3554 38.4015 36.2495 38.4178 36.1599L39.7293 33.5287C39.7456 33.4391 39.8352 33.4554 39.9248 33.4717C40.0144 33.488 39.9981 33.5776 39.9818 33.6672L38.6703 36.2984C38.7436 36.4043 38.654 36.388 38.5644 36.3717Z" fill="#2C3647"/>
<path d="M41.7494 37.6914C41.6598 37.6751 41.5864 37.5692 41.6027 37.4796C42.9224 35.3127 44.3317 33.1622 45.8143 31.1175C45.8306 31.0279 45.9202 31.0442 46.0098 31.0605C46.0995 31.0768 46.0832 31.1664 46.0669 31.256C44.5843 33.3007 43.175 35.4512 41.8553 37.6181C41.9286 37.724 41.839 37.7077 41.7494 37.6914Z" fill="#2C3647"/>
<path d="M35.8755 51.1566C35.8022 51.0507 35.7126 51.0344 35.8185 50.9611L46.9544 35.0274C46.9707 34.9378 47.0603 34.9541 47.1499 34.9704C47.2395 34.9867 47.2232 35.0763 47.207 35.1659L36.071 51.0996C36.0547 51.1892 35.9651 51.1729 35.8755 51.1566Z" fill="#2C3647"/>
<path d="M38.9715 52.4604C38.8981 52.3545 38.8085 52.3382 38.9144 52.2648L46.4416 41.4143C46.4579 41.3247 46.5475 41.341 46.6371 41.3573C46.7267 41.3735 46.7104 41.4632 46.6941 41.5528L39.167 52.4033C39.0774 52.387 39.0611 52.4766 38.9715 52.4604Z" fill="#2C3647"/>
<path d="M45.7816 47.5889C45.6186 47.4667 45.6349 47.3771 45.7245 47.3934L48.8527 43.4263C48.869 43.3367 48.9586 43.353 49.0482 43.3693C49.1378 43.3855 49.1215 43.4752 49.1052 43.5648L45.9771 47.5319C45.8875 47.5156 45.8712 47.6052 45.7816 47.5889Z" fill="#2C3647"/>
<path d="M40.3402 55.1158C40.2506 55.0995 40.3402 55.1158 40.3402 55.1158C40.1773 54.9936 40.1936 54.904 40.2832 54.9203L41.7495 52.9653C41.7658 52.8757 41.8554 52.8919 41.945 52.9082C42.0346 52.9245 42.0183 53.0141 42.002 53.1037L40.5357 55.0588C40.4298 55.1321 40.3402 55.1158 40.3402 55.1158Z" fill="#2C3647"/>
<path d="M24.2434 40.8029C24.1538 40.7866 24.2434 40.8029 24.2434 40.8029C24.0805 40.6807 24.0967 40.5911 24.1864 40.6074L26.174 37.8215C26.1903 37.7318 26.2799 37.7481 26.3695 37.7644C26.4592 37.7807 26.4429 37.8703 26.4266 37.9599L24.4389 40.7459C24.333 40.8192 24.2434 40.8029 24.2434 40.8029Z" fill="#2C3647"/>
<path d="M32.4221 30.441C32.3325 30.4247 32.4221 30.441 32.4221 30.441C32.2592 30.3188 32.2755 30.2292 32.3651 30.2455L33.7988 28.4697C33.8151 28.38 33.9047 28.3963 33.9943 28.4126C34.0839 28.4289 34.0676 28.5185 34.0514 28.6081L32.528 30.3677C32.528 30.3677 32.5117 30.4573 32.4221 30.441Z" fill="#2C3647"/>
<g opacity="0.1294">
<path opacity="0.1294" d="M41.8064 42.9782C41.8471 42.245 40.8615 42.0658 40.5682 42.6605C40.2749 43.2551 40.3808 43.1818 39.5499 43.6787C38.8249 44.1023 39.0367 43.9557 37.9859 44.1349C36.9513 44.2245 37.3993 44.3059 36.5929 44.1593C36.5033 44.143 36.43 44.0371 36.2507 44.0045C35.9249 43.7601 35.9982 43.866 35.3628 43.2877C35.1266 43.0596 34.817 42.7256 34.4586 42.6604C33.4159 42.2857 32.585 43.8008 33.4729 44.5177C34.9636 45.9922 36.5684 46.8394 38.719 46.2121C39.8024 45.8537 40.6985 44.9984 41.2525 43.9883C41.4806 43.752 41.7249 43.4262 41.8064 42.9782Z" fill="#2C3647"/>
</g>
<g opacity="0.1294">
<path opacity="0.1294" d="M42.7595 54.5376C42.0834 54.6924 41.7983 54.7331 40.5845 54.7901C40.0143 54.8715 39.3137 54.6516 38.7109 54.9123C37.5949 55.4499 38.0918 57.2991 39.3218 57.1524C40.8044 57.1443 42.4336 57.348 43.7941 56.4845C44.8693 55.6618 43.9326 54.1955 42.7595 54.5376Z" fill="#2C3647"/>
</g>
<g opacity="0.1294">
<path opacity="0.1294" d="M52.5348 46.5952C52.5837 46.3264 52.5267 46.1309 52.486 45.8458C52.1113 44.852 50.6612 44.6809 50.2132 45.6177C50.1969 45.7073 50.1073 45.691 50.091 45.7806C49.9688 45.9435 49.8466 46.1064 49.7081 46.359C49.5859 46.5219 49.4638 46.6848 49.4475 46.7744C49.3253 46.9373 49.1868 47.1899 49.1379 47.4587C48.8446 49.0716 51.0359 49.7478 51.7609 48.3059C52.0379 47.8009 52.2986 47.3854 52.486 46.8641C52.5023 46.7745 52.5185 46.6848 52.5348 46.5952Z" fill="#2C3647"/>
</g>
<path d="M37.8798 57.4456C37.7006 57.4131 37.5377 57.2909 37.4807 57.0954C37.2445 55.849 36.9349 54.4967 36.4299 53.2015C35.0532 53.1363 33.6357 52.786 32.3079 52.452C31.8192 53.1037 31.2408 53.7391 30.752 54.3908C30.4913 54.8062 30.141 55.2054 29.7907 55.6045C29.6686 55.7675 29.3834 55.8082 29.2205 55.686C27.3062 54.5048 25.6688 52.8185 24.6343 50.8716C24.5773 50.6761 24.6099 50.4969 24.7321 50.3339C25.6281 49.4786 26.5405 48.5337 27.5751 47.4258C26.9641 46.2039 26.4021 44.7131 26.0681 42.9862C25.6934 43.0106 25.4245 42.9617 25.0498 42.9861C24.0316 42.9861 22.9074 43.0594 21.7099 43.0268C21.5307 42.9943 21.2782 42.8558 21.3271 42.5869C21.1397 40.0535 21.8077 37.3979 23.3311 34.6201C23.4533 34.4571 23.6651 34.3105 23.9176 34.449L24.0072 34.4653C25.3758 35.0844 26.7443 35.7035 28.2024 36.3389C29.0741 35.1089 30.1087 34.001 31.1595 32.8035C30.6219 31.6875 30.0109 30.4656 29.5385 28.9911C29.4815 28.7956 29.514 28.6164 29.7258 28.4698C31.5099 27.3131 33.7093 26.417 36.2183 25.855C36.4138 25.7979 36.6664 25.9364 36.7234 26.1319C37.2121 27.5168 37.595 28.9749 37.9779 30.4331C39.5501 30.4413 40.9838 30.7019 42.4908 31.0685C43.3462 29.9281 44.3074 28.7143 45.4642 27.4435C45.5864 27.2806 45.8715 27.2399 46.0344 27.3621C47.574 28.5677 48.9914 29.9363 50.197 31.4515C50.4903 31.8751 50.8732 32.315 51.1827 32.649C51.3293 32.8608 51.5656 33.0889 51.59 33.4636C51.5737 33.5532 51.5411 33.7324 51.4352 33.8057C50.979 34.2782 50.5391 34.6611 50.083 35.1335C49.5046 35.7689 48.8366 36.388 48.1523 37.0967C48.4048 38.2535 48.641 39.4998 48.8773 40.7462C50.1155 41.0639 51.6795 41.626 53.2517 42.6524C53.4146 42.7746 53.488 42.8805 53.4554 43.0597C53.1376 45.3162 52.5104 47.2387 51.4351 49.0797C51.3129 49.2426 51.1174 49.2997 50.9382 49.2671L50.4901 49.1856C49.4311 48.9005 48.2662 48.6887 46.9954 48.5502C46.3356 49.6336 45.4232 50.5785 44.1035 51.7271C44.519 53.0061 45.024 54.3013 45.301 55.8328C45.358 56.0283 45.2195 56.2808 45.024 56.3378C42.7186 57.3072 40.3318 57.7063 37.8798 57.4456C37.9694 57.4619 37.9694 57.4619 37.8798 57.4456ZM36.9512 52.3706C37.1304 52.4032 37.2038 52.5091 37.2771 52.615C37.8554 54.0161 38.165 55.3684 38.4012 56.6147C40.4214 56.7044 42.5068 56.4356 44.5678 55.792C44.2746 54.3502 43.7695 53.0549 43.3378 51.8656C43.2808 51.6701 43.3134 51.4909 43.4356 51.328C44.8611 50.1061 45.7898 49.0715 46.4497 47.9881C46.5718 47.8252 46.6777 47.7518 46.857 47.7844C48.2174 47.9392 49.5615 48.1836 50.7101 48.485L50.8893 48.5176C51.7202 47.0024 52.3149 45.2592 52.5674 43.3611C51.0686 42.4406 49.5778 41.9844 48.4292 41.683C48.25 41.6504 48.0871 41.5282 48.1197 41.349C47.8997 40.013 47.6065 38.5712 47.3866 37.2352C47.3132 37.1293 47.4354 36.9664 47.4517 36.8768C48.1523 36.0785 48.8366 35.3698 49.5046 34.7507C49.8549 34.3515 50.2785 34.0582 50.6288 33.6591C50.5554 33.5532 50.5554 33.5532 50.4658 33.5369C50.1726 33.1133 49.7897 32.6734 49.4802 32.3394C48.3316 31.0197 47.0771 29.7733 45.7167 28.6003C44.6658 29.7978 43.7209 30.9219 42.8655 32.0624C42.7433 32.2253 42.5478 32.2823 42.3686 32.2497C40.7883 31.7772 39.0694 31.5573 37.4972 31.5491C37.318 31.5165 37.0655 31.378 37.0981 31.1988C36.8048 29.757 36.4057 28.3884 36.0065 27.0198C33.8722 27.5575 32.0638 28.3395 30.4183 29.2437C30.907 30.6285 31.4284 31.8342 31.9823 32.8606C32.0393 33.0561 32.0067 33.2353 31.8845 33.3982C30.7115 34.7586 29.571 35.9398 28.5772 37.3328C28.6668 37.3491 28.4713 37.4061 28.2024 37.3572C26.7443 36.7218 25.2861 36.0864 24.0072 35.4836C22.7445 37.8459 22.158 40.0535 22.3209 42.2122C23.3391 42.2122 24.2678 42.196 25.1965 42.1797C25.6608 42.1715 26.1251 42.1634 26.5895 42.1553C26.7687 42.1878 27.0212 42.3263 26.9886 42.5055C27.3796 44.428 27.9254 46.0084 28.6992 47.3525C28.7563 47.548 28.7237 47.7272 28.6015 47.8901C27.5669 48.998 26.6545 49.9429 25.7422 50.8879C26.6627 52.4438 27.9742 53.8857 29.5464 54.9121C29.7908 54.5863 30.0189 54.35 30.2632 54.0242C30.8742 53.2096 31.4689 52.4846 32.0473 51.8492C32.1695 51.6863 32.365 51.6293 32.5279 51.7515C33.7987 51.8899 35.2894 52.3461 36.9512 52.3706C36.8616 52.3543 36.8616 52.3543 36.9512 52.3706Z" fill="#2C3647"/>
<path d="M36.275 44.3791C35.6477 44.2651 35.1264 44.0777 34.6376 43.7111C34.2222 43.4505 33.9126 43.1165 33.7986 42.7254C33.6112 42.2285 33.6194 41.6746 33.595 41.2999C33.766 39.8499 34.3689 38.5709 35.2487 37.8052C36.3565 36.8032 37.8717 36.6159 39.061 37.2024C39.1507 37.2187 39.224 37.3246 39.224 37.3246C40.397 38.0008 41.1546 39.4345 40.9835 40.8845C40.8287 42.2449 39.8512 43.5483 38.5559 44.0533C37.8309 44.4769 37.0815 44.5258 36.275 44.3791ZM38.0183 37.846C37.3015 37.7156 36.4298 37.9274 35.8515 38.5628C35.0776 39.2552 34.6132 40.2816 34.491 41.4628C34.4421 41.7316 34.4666 42.1063 34.5969 42.4078C34.6539 42.6033 34.8902 42.8314 35.1427 42.9698C36.0469 43.5971 37.2281 43.7193 38.2219 43.3446C39.2158 42.9699 39.9652 41.9027 40.1444 40.9171C40.2504 39.8255 39.7127 38.7095 38.8818 38.1881L38.7922 38.1718C38.7026 38.1555 38.5397 38.0333 38.4664 37.9274C38.2872 37.8948 38.1079 37.8622 38.0183 37.846ZM38.8004 37.6179L38.8085 38.0822L38.8004 37.6179Z" fill="#2C3647"/>
<path d="M65.7724 27.2482L71.157 26.6536L70.3832 19.1999L65.6259 19.9086L63.4835 14.8905L66.7175 10.8501L61.056 6.85842L58.1722 11.518L52.9587 10.6626L51.6961 5.89708L44.7556 8.43046L46.8328 12.7887L42.5561 16.4544L39.3628 14.6703L36.1532 22.1403L40.0226 23.7696L40.9023 29.1134L37.2365 31.9645L41.5539 37.7483L44.7146 34.6203L49.2683 36.5591L48.8528 41.3897L55.2964 42.0985L55.4675 37.5937L59.5976 35.7527L62.4731 39.7932L68.3302 34.5635L64.5912 31.1991L65.7724 27.2482ZM52.8608 28.5107C50.3518 28.0545 48.7715 25.5455 49.244 22.9469C49.7165 20.3483 52.0789 18.5562 54.5879 19.0124C57.0969 19.4686 58.6772 21.9776 58.2047 24.5762C57.7159 27.2644 55.3698 28.9669 52.8608 28.5107Z" fill="#EEE9E2"/>
<path d="M48.6982 41.7321C48.519 41.6995 48.2827 41.4714 48.3153 41.2922L48.6819 36.7303L44.6333 35.0685L41.7903 37.9766C41.6844 38.0499 41.5785 38.1233 41.4889 38.107C41.3993 38.0907 41.2201 38.0581 41.1467 37.9522L36.8294 32.1684C36.6827 31.9566 36.7316 31.6878 36.9434 31.5411L40.3974 28.8367L39.6154 23.9734L35.9986 22.4826C35.9089 22.4663 35.8356 22.3604 35.7623 22.2545C35.689 22.1486 35.7053 22.059 35.7379 21.8798L38.9475 14.4099C38.9638 14.3203 39.086 14.1573 39.1756 14.1736C39.2815 14.1003 39.4607 14.1329 39.5341 14.2388L42.4748 15.8843L46.2057 12.6748L44.4544 8.561C44.3811 8.4551 44.3974 8.36549 44.4299 8.18628C44.4462 8.09667 44.5521 8.02335 44.658 7.95004L51.5986 5.41666C51.7045 5.34335 51.8837 5.37594 51.957 5.48184C52.0466 5.49813 52.1199 5.60403 52.1769 5.79954L53.3988 10.2799L58.0747 11.0376L60.7304 6.61424C60.7466 6.52463 60.8525 6.45131 61.0481 6.39429C61.1377 6.41059 61.3169 6.44317 61.4065 6.45947L67.068 10.4511C67.1413 10.557 67.2146 10.6629 67.2879 10.7688C67.2716 10.8584 67.2391 11.0376 67.2228 11.1273L64.1272 14.9152L65.9926 19.42L70.3752 18.7358C70.4648 18.7521 70.6441 18.7846 70.7337 18.8009C70.807 18.9068 70.8803 19.0127 70.864 19.1023L71.6378 26.5561C71.6785 26.8412 71.4667 26.9878 71.2712 27.0448L66.1718 27.5987L65.0883 31.0119L68.5911 34.1482C68.6644 34.2541 68.7377 34.36 68.7214 34.4496C68.7051 34.5392 68.6725 34.7184 68.5666 34.7918L62.7095 40.0215C62.6036 40.0948 62.4977 40.1681 62.3185 40.1356C62.2289 40.1193 62.0497 40.0867 61.9764 39.9808L59.3208 36.258L55.7935 37.8383L55.5816 42.058C55.5654 42.1476 55.5328 42.3268 55.4269 42.4001C55.321 42.4734 55.2151 42.5467 55.1255 42.5304L48.6982 41.7321ZM44.617 34.1398L44.7066 34.1561L49.2603 36.095C49.4395 36.1275 49.5862 36.3393 49.5536 36.5186L49.2032 40.9908L54.7345 41.6262L54.9137 37.5857C54.9463 37.4065 55.0685 37.2436 55.1744 37.1703L59.3045 35.3293C59.5 35.2723 59.6792 35.3049 59.8258 35.5167L62.4081 39.1336L67.5973 34.5229L64.2574 31.5088C64.0945 31.3866 64.0374 31.1911 64.1596 31.0282L65.4305 27.0936C65.463 26.9144 65.6748 26.7678 65.7645 26.7841L70.6684 26.2872L70.0168 19.6889L65.7401 20.2998C65.5446 20.3568 65.3817 20.2346 65.235 20.0228L63.0926 15.0048C63.0356 14.8093 63.0519 14.7197 63.1741 14.5567L66.1475 10.9317L61.3169 7.46144L58.6938 11.7055C58.5716 11.8685 58.4657 11.9418 58.2865 11.9092L53.0729 11.0538C52.8937 11.0212 52.7308 10.899 52.7634 10.7198L51.5089 6.41864L45.4563 8.65061L47.1344 12.6585C47.1914 12.854 47.1588 13.0332 47.0366 13.1962L42.7599 16.8619C42.6377 17.0248 42.4585 16.9922 42.2793 16.9596L39.5178 15.3467L36.6503 21.9532L40.0879 23.4113C40.2671 23.4439 40.3241 23.6394 40.3975 23.7453L41.2772 29.0892C41.3342 29.2847 41.212 29.4476 41.1061 29.5209L37.7906 31.9729L41.5052 36.9991L44.226 34.2539C44.3482 34.091 44.5274 34.1235 44.617 34.1398ZM52.7795 28.959C50.0913 28.4702 48.2747 25.7331 48.7961 22.8656C49.3175 19.9982 51.9813 18.0757 54.6695 18.5645C57.3577 19.0533 59.1743 21.7905 58.6529 24.6579C58.1315 27.5253 55.4677 29.4478 52.7795 28.959ZM54.4903 19.5502C52.2501 19.1429 50.1158 20.6988 49.6759 23.1182C49.236 25.5376 50.686 27.7452 52.9261 28.1525C55.1663 28.5598 57.3006 27.004 57.7405 24.5846C58.1805 22.1652 56.7305 19.9576 54.4903 19.5502Z" fill="#2C3647"/>
<g opacity="0.1294">
<path opacity="0.1294" d="M42.6458 35.8178C42.5806 35.158 41.986 34.8647 41.6194 34.3352C41.4565 34.213 40.8374 33.5451 40.2509 32.6979C39.8843 32.1684 39.5503 31.4596 39.0615 31.0931C38.1573 30.4658 37.0169 31.647 37.6767 32.6001C38.7601 34.2782 39.6887 35.2802 40.6907 36.3881C40.9269 36.6161 40.7151 36.7628 41.5053 36.999C42.1326 37.1131 42.7109 36.4777 42.6458 35.8178Z" fill="#2C3647"/>
</g>
<g opacity="0.1294">
<path opacity="0.1294" d="M54.6939 40.3228C54.531 40.2006 54.1563 40.2251 54.0667 40.2088C53.4394 40.0947 52.8122 39.9807 52.1849 39.8666C51.574 39.6629 50.9467 39.5489 50.3195 39.4348C49.961 39.3697 49.7248 39.1416 49.3338 39.2556C48.177 39.5081 48.2259 41.2758 49.3908 41.4877C50.3602 41.7565 51.3459 41.9357 52.4374 42.0416C52.8855 42.1231 53.4231 42.2208 53.8712 42.3023C54.14 42.3512 54.3192 42.3838 54.6206 42.2534C55.4189 41.9357 55.4678 40.6487 54.6939 40.3228Z" fill="#2C3647"/>
</g>
<g opacity="0.1294">
<path opacity="0.1294" d="M66.0085 33.5861C64.8355 34.9465 63.0759 36.4779 62.5871 37.1296C62.3427 37.4554 61.8621 37.5532 61.6177 37.879C60.9905 38.7832 62.0983 39.8178 62.9455 39.2313C63.7765 38.7344 64.7214 37.6102 64.8273 37.5369C65.4953 36.9178 66.1796 36.2091 66.8476 35.59C67.092 35.2642 67.4993 35.0605 67.6703 34.6288C68.0614 33.4965 66.7091 32.7878 66.0085 33.5861Z" fill="#2C3647"/>
</g>
</g>
<defs>
<clipPath id="clip0_3007_4351">
<rect width="42.3672" height="29.7472" fill="white" transform="translate(91.9999 26.7993) rotate(-34.1761)"/>
</clipPath>
<clipPath id="clip1_3007_4351">
<rect width="52.083" height="36.5689" fill="white" transform="translate(164.111 58.2954) rotate(-27.6828)"/>
</clipPath>
<clipPath id="clip2_3007_4351">
<rect width="46.9044" height="54.4637" fill="white" transform="translate(28.716 0.422852) rotate(10.3054)"/>
</clipPath>
</defs>
</svg>
