<svg width="240" height="193" viewBox="0 0 240 193" fill="none" xmlns="http://www.w3.org/2000/svg">
<path d="M0.459854 191.323C0.459854 191.323 1.37975 144.442 1.37975 89.9304C1.37975 77.3367 0.459854 59.4115 0.459854 59.4115L239.08 58.1245C239.08 58.1245 238.436 81.5653 239.08 100.778C240 128.631 239.08 191.783 239.08 191.783C239.08 191.783 159.141 189.301 109.835 191.231C79.4786 192.426 0.459854 191.323 0.459854 191.323Z" fill="white"/>
<path d="M239.08 192.335C238.252 192.335 158.589 189.853 109.835 191.783C79.8467 192.978 1.19586 191.783 0.459946 191.783C0.367957 191.783 0.183979 191.691 0.183979 191.691C0 191.507 0 191.415 0 191.232C0 190.772 0.919893 143.707 0.919893 89.8388C0.919893 77.4289 0 59.5037 0 59.3198C0 59.2279 0 59.044 0.0919893 58.9521C0.183979 58.8602 0.275968 58.7683 0.459946 58.7683L239.172 57.5732C239.264 57.5732 239.448 57.6652 239.54 57.6652C239.632 57.7571 239.632 57.849 239.632 58.0329C239.632 58.3086 238.988 81.6575 239.632 100.686C240.46 128.171 239.632 191.14 239.632 191.783C239.632 191.875 239.54 192.059 239.448 192.059C239.356 192.243 239.264 192.335 239.08 192.335ZM155.37 190.128C194.557 190.128 233.929 191.232 238.62 191.415C238.712 185.624 239.448 127.068 238.62 100.87C238.068 83.3121 238.528 62.0775 238.62 58.6763L0.919893 59.7794C1.10387 62.721 1.83979 78.532 1.83979 89.8388C1.83979 140.949 1.01188 185.9 0.919893 190.864C7.35914 190.956 81.0425 191.967 109.835 190.864C123.45 190.312 139.364 190.128 155.37 190.128Z" fill="#2C3647"/>
<path d="M0.459854 62.5371V51.5062C0.459854 51.5062 80.4905 50.8627 111.675 50.8627C143.135 50.8627 239.172 50.2192 239.172 50.2192V61.2502C239.172 61.2502 139.732 61.1583 105.328 62.3533C75.5231 63.4564 0.459854 62.5371 0.459854 62.5371Z" fill="white"/>
<path d="M60.7129 63.3645C31.1844 63.3645 0.919893 62.9968 0.459946 62.9968C0.183979 62.9968 0 62.8129 0 62.5372V51.5062C0 51.2304 0.183979 51.0466 0.459946 51.0466C1.28785 51.0466 80.8586 50.4031 111.675 50.4031C142.675 50.495 238.16 49.8516 239.08 49.8516C239.172 49.8516 239.356 49.9435 239.356 49.9435C239.448 50.0354 239.448 50.1273 239.448 50.2193V61.2502C239.448 61.3421 239.356 61.526 239.356 61.526C239.264 61.6179 239.172 61.6179 239.08 61.6179C238.068 61.6179 139.18 61.526 105.236 62.721C94.565 63.1806 77.7309 63.3645 60.7129 63.3645ZM0.919893 62.0775C7.17516 62.1695 77.087 62.9049 105.236 61.9856C138.076 60.8825 231.353 60.8825 238.712 60.8825V50.7708C231.537 50.7708 141.663 51.3224 111.675 51.3224C82.0544 51.3224 7.35914 51.9658 0.919893 51.9658V62.0775Z" fill="#2C3647"/>
<path d="M227.582 58.1245C228.902 58.1245 229.973 57.0956 229.973 55.8264C229.973 54.5572 228.902 53.5283 227.582 53.5283C226.261 53.5283 225.19 54.5572 225.19 55.8264C225.19 57.0956 226.261 58.1245 227.582 58.1245Z" fill="#ACD4F7"/>
<path d="M227.581 58.5843C226.018 58.5843 224.73 57.2974 224.73 55.8266C224.73 54.3558 226.018 53.0688 227.581 53.0688C229.145 53.0688 230.433 54.3558 230.433 55.8266C230.433 57.2974 229.145 58.5843 227.581 58.5843ZM227.581 53.8962C226.478 53.8962 225.65 54.7235 225.65 55.8266C225.65 56.9297 226.569 57.757 227.581 57.757C228.593 57.757 229.513 56.9297 229.513 55.8266C229.513 54.7235 228.685 53.8962 227.581 53.8962Z" fill="#2C3647"/>
<path d="M212.495 58.125C213.816 58.125 214.887 57.0961 214.887 55.8269C214.887 54.5577 213.816 53.5288 212.495 53.5288C211.174 53.5288 210.104 54.5577 210.104 55.8269C210.104 57.0961 211.174 58.125 212.495 58.125Z" fill="white"/>
<path d="M212.495 58.5843C210.931 58.5843 209.643 57.2974 209.643 55.8266C209.643 54.3558 210.931 53.0688 212.495 53.0688C214.059 53.0688 215.347 54.3558 215.347 55.8266C215.347 57.2974 214.059 58.5843 212.495 58.5843ZM212.495 53.8962C211.391 53.8962 210.563 54.7235 210.563 55.8266C210.563 56.9297 211.483 57.757 212.495 57.757C213.599 57.757 214.427 56.9297 214.427 55.8266C214.427 54.7235 213.507 53.8962 212.495 53.8962Z" fill="#2C3647"/>
<path d="M197.317 58.1245C198.638 58.1245 199.709 57.0956 199.709 55.8264C199.709 54.5572 198.638 53.5283 197.317 53.5283C195.996 53.5283 194.925 54.5572 194.925 55.8264C194.925 57.0956 195.996 58.1245 197.317 58.1245Z" fill="white"/>
<path d="M197.317 58.5843C195.753 58.5843 194.465 57.2974 194.465 55.8266C194.465 54.3558 195.753 53.0688 197.317 53.0688C198.881 53.0688 200.168 54.3558 200.168 55.8266C200.168 57.2974 198.973 58.5843 197.317 58.5843ZM197.317 53.8962C196.213 53.8962 195.385 54.7235 195.385 55.8266C195.385 56.9297 196.305 57.757 197.317 57.757C198.329 57.757 199.249 56.9297 199.249 55.8266C199.249 54.7235 198.421 53.8962 197.317 53.8962Z" fill="#2C3647"/>
<g opacity="0.13">
<path opacity="0.13" d="M238.988 63.9162C238.988 63.9162 104.683 65.9386 59.8847 66.0305C45.1664 66.1224 0.551578 65.4789 0.551578 65.4789L0.367599 62.4454C39.2791 62.2616 82.606 63.3647 121.517 61.802C162.085 60.2392 198.42 61.4343 239.08 61.1585C239.08 62.1697 239.08 63.0889 238.988 63.9162Z" fill="#2C3647"/>
</g>
<path d="M223.532 157.825C224.176 157.55 225.372 162.789 225.372 162.789C225.372 162.789 229.971 162.422 230.339 163.157C230.707 163.984 226.568 166.742 226.568 166.742C226.568 166.742 228.315 172.074 227.763 172.35C226.935 172.809 223.532 169.408 223.532 169.408C223.532 169.408 219.944 172.625 219.3 172.35C219.024 172.166 220.588 166.926 220.588 166.926C220.588 166.926 216.633 164.26 216.817 163.525C217.001 162.881 221.6 162.973 221.6 162.973C221.6 162.973 222.704 158.193 223.532 157.825Z" fill="white"/>
<path d="M227.579 172.901C226.567 172.901 224.912 171.43 223.532 170.051C219.944 173.177 219.392 172.901 219.116 172.809C218.748 172.625 218.472 172.533 220.128 167.11C216.173 164.444 216.449 163.708 216.541 163.433C216.633 163.157 216.817 162.513 221.416 162.605C221.784 160.675 222.612 157.825 223.44 157.458C223.624 157.366 223.808 157.366 223.992 157.458C224.636 157.825 225.372 160.215 225.832 162.33C227.947 162.146 230.431 162.146 230.891 162.973C231.259 163.708 230.063 165.087 227.211 166.926C228.867 172.257 228.407 172.625 228.039 172.717C227.855 172.901 227.763 172.901 227.579 172.901ZM223.532 169.04C223.624 169.04 223.808 169.04 223.808 169.132C225.188 170.511 226.751 171.798 227.395 171.982C227.395 171.246 226.751 168.856 226.107 166.926C226.016 166.742 226.107 166.558 226.291 166.374C228.131 165.179 229.695 163.8 229.879 163.341C229.419 163.065 227.395 163.065 225.372 163.157C225.188 163.157 224.912 163.065 224.912 162.789C224.544 161.043 223.9 159.02 223.532 158.285C223.072 158.928 222.52 161.135 222.152 162.973C222.152 163.157 221.876 163.341 221.692 163.341C220.036 163.341 218.012 163.433 217.369 163.617C217.736 164.168 219.392 165.455 220.864 166.466C221.048 166.558 221.14 166.742 221.048 166.926C220.496 168.764 219.944 170.787 219.76 171.706C220.496 171.246 221.968 170.143 223.164 169.04C223.348 169.04 223.44 169.04 223.532 169.04Z" fill="#2C3647"/>
<path d="M107.627 177.902C109.202 177.902 110.479 176.627 110.479 175.053C110.479 173.479 109.202 172.203 107.627 172.203C106.052 172.203 104.776 173.479 104.776 175.053C104.776 176.627 106.052 177.902 107.627 177.902Z" fill="white"/>
<path d="M107.628 178.27C105.788 178.27 104.316 176.799 104.316 174.961C104.316 173.122 105.788 171.651 107.628 171.651C109.467 171.651 110.939 173.122 110.939 174.961C110.847 176.799 109.375 178.27 107.628 178.27ZM107.628 172.663C106.34 172.663 105.236 173.766 105.236 175.053C105.236 176.34 106.34 177.443 107.628 177.443C108.915 177.443 110.019 176.34 110.019 175.053C109.927 173.766 108.915 172.663 107.628 172.663Z" fill="#2C3647"/>
<path d="M36.0874 89.1145C31.1443 89.1145 25.9994 89.0137 21.1572 89.0137C21.3589 93.9533 21.0563 103.329 21.0563 103.329L35.8856 103.631C35.8856 103.53 35.8856 93.7517 36.0874 89.1145Z" fill="white"/>
<path d="M35.8857 103.934L21.0563 103.631C20.9554 103.631 20.7537 103.53 20.7537 103.429C20.6528 103.329 20.6528 103.228 20.6528 103.026C20.6528 102.925 20.9554 93.5502 20.7537 88.8122C20.7537 88.7113 20.7537 88.5097 20.8546 88.4089C20.9554 88.3081 21.0563 88.3081 21.2581 88.3081C24.3854 88.3081 27.6135 88.3081 30.8417 88.4089C32.6575 88.4089 34.3725 88.4089 36.1883 88.5097C36.2892 88.5097 36.491 88.6105 36.491 88.6105C36.5918 88.7113 36.5918 88.8121 36.5918 89.0138C36.3901 93.7518 36.3901 103.429 36.3901 103.53C36.3901 103.631 36.2892 103.833 36.2892 103.833C36.1883 103.934 35.9866 103.934 35.8857 103.934ZM21.5607 102.724L35.3813 103.026C35.3813 101.01 35.3813 93.7518 35.4822 89.6186C33.8681 89.6186 32.254 89.6186 30.6399 89.5178C27.6135 89.5178 24.5871 89.417 21.5607 89.417C21.8634 93.7518 21.6616 100.808 21.5607 102.724Z" fill="#2C3647"/>
<path d="M28.2184 100.406C28.0166 100.406 27.8149 100.305 27.8149 100.103C27.1087 98.6918 26.3017 97.3813 25.3937 96.1715C25.192 95.9699 25.2929 95.6675 25.4946 95.4659C25.6964 95.2643 25.999 95.3651 26.2008 95.5667C27.0078 96.5748 27.714 97.6837 28.3193 98.7926L31.043 93.6513C31.1439 93.4497 31.4465 93.3489 31.7492 93.4497C31.9509 93.5505 32.0518 93.8529 31.9509 94.1554L28.8237 100.103C28.6219 100.305 28.4201 100.406 28.2184 100.406Z" fill="#2C3647"/>
<path d="M36.0874 119.962C31.1443 119.962 25.9994 119.861 21.1571 119.861C21.3589 124.801 21.0563 134.176 21.0563 134.176L35.8856 134.479C35.8856 134.378 35.8856 124.599 36.0874 119.962Z" fill="white"/>
<path d="M35.8857 134.882L21.0563 134.579C20.9554 134.579 20.7537 134.479 20.7537 134.378C20.6528 134.277 20.6528 134.176 20.6528 133.974C20.6528 133.874 20.9554 124.498 20.7537 119.76C20.7537 119.66 20.7537 119.458 20.8545 119.357C20.9554 119.256 21.0563 119.256 21.2581 119.256C24.3853 119.256 27.7144 119.256 30.8417 119.357C32.5566 119.357 34.3725 119.357 36.0874 119.458C36.1883 119.458 36.3901 119.559 36.3901 119.66C36.4909 119.76 36.4909 119.861 36.4909 120.063C36.3901 124.599 36.3901 134.277 36.3901 134.378C36.3901 134.479 36.2892 134.68 36.2892 134.68C36.1883 134.781 35.9865 134.882 35.8857 134.882ZM21.5607 133.571L35.3813 133.874C35.3813 131.857 35.3813 124.599 35.4821 120.466C33.8681 120.466 32.254 120.466 30.7408 120.365C27.7144 120.365 24.5871 120.264 21.6616 120.264C21.8633 124.599 21.6616 131.656 21.5607 133.571Z" fill="#2C3647"/>
<path d="M28.2184 131.353C28.0166 131.353 27.8148 131.252 27.8148 131.051C27.1087 129.64 26.3016 128.329 25.3937 127.119C25.192 126.918 25.2928 126.615 25.4946 126.414C25.6964 126.212 25.999 126.313 26.2008 126.514C27.0078 127.523 27.714 128.631 28.3192 129.74L31.043 124.599C31.1439 124.397 31.4465 124.297 31.7492 124.397C31.9509 124.498 32.0518 124.801 31.9509 125.103L28.8236 131.051C28.6219 131.252 28.4201 131.353 28.2184 131.353Z" fill="#2C3647"/>
<path d="M36.9946 149.902C32.0515 149.902 26.9066 149.801 22.0644 149.801C22.2662 154.741 21.9635 164.116 21.9635 164.116L36.7929 164.419C36.8938 164.318 36.8938 154.64 36.9946 149.902Z" fill="white"/>
<path d="M36.8936 164.822L22.0643 164.52C21.9634 164.52 21.7616 164.419 21.7616 164.318C21.6607 164.217 21.6607 164.117 21.6607 163.915C21.6607 163.814 21.9634 154.439 21.7616 149.701C21.7616 149.6 21.7616 149.398 21.8625 149.298C21.9634 149.197 22.0643 149.197 22.266 149.197C25.3933 149.197 28.7223 149.197 31.8496 149.298C33.5646 149.298 35.3804 149.298 37.0954 149.398C37.1963 149.398 37.398 149.499 37.398 149.499C37.4989 149.6 37.4989 149.701 37.4989 149.902C37.398 154.54 37.398 164.217 37.398 164.318C37.398 164.419 37.2971 164.621 37.2971 164.621C37.0954 164.721 36.9945 164.822 36.8936 164.822ZM22.5687 163.512L36.3892 163.814C36.3892 161.798 36.3892 154.54 36.4901 150.406C34.876 150.406 33.2619 150.406 31.7487 150.306C28.7223 150.306 25.5951 150.205 22.6695 150.205C22.7704 154.54 22.5687 161.596 22.5687 163.512Z" fill="#2C3647"/>
<path d="M29.2255 161.294C29.0237 161.294 28.822 161.193 28.822 160.991C28.1158 159.58 27.3088 158.269 26.4009 157.06C26.1991 156.858 26.3 156.556 26.5017 156.354C26.7035 156.152 27.0061 156.253 27.2079 156.455C28.0149 157.463 28.7211 158.572 29.3264 159.681L32.0501 154.54C32.151 154.338 32.4537 154.237 32.7563 154.338C32.9581 154.439 33.0589 154.741 32.9581 155.044L29.8308 160.991C29.5281 161.193 29.3264 161.294 29.2255 161.294Z" fill="#2C3647"/>
<path d="M66.7547 100.103C66.3512 100.103 66.0486 100.002 65.6451 99.8004C64.9389 99.498 64.4345 98.8932 64.031 98.3891C63.8292 98.0867 63.5266 97.7843 63.3248 97.5826C61.9125 96.2721 60.3993 96.9778 58.3817 98.2883C57.8773 98.5907 57.3729 98.8932 56.9694 99.1956C55.4562 99.9013 54.2456 100.103 53.2368 99.6996C52.4298 99.3972 52.0263 98.6915 51.6227 98.1875C51.3201 97.7843 51.0175 97.381 50.6139 97.0786C48.9999 96.0705 46.9823 96.7762 44.5611 99.2964C44.3594 99.498 44.0567 99.498 43.855 99.2964C43.6532 99.0948 43.6532 98.7924 43.855 98.5907C46.5787 95.7681 49.1007 94.9616 51.1183 96.1713C51.7236 96.5746 52.1271 97.0786 52.4298 97.5826C52.7324 98.0867 53.0351 98.5907 53.6403 98.7924C54.3465 99.0948 55.3553 98.8932 56.5659 98.2883C56.9694 98.0867 57.4738 97.7843 57.9782 97.4818C59.794 96.3729 61.9125 94.9616 64.031 96.877C64.3336 97.1794 64.6363 97.4818 64.838 97.7843C65.2415 98.2883 65.6451 98.6915 66.1495 98.994C66.8556 99.2964 67.6627 99.1956 68.6715 98.3891C68.8732 98.2883 69.075 98.0867 69.2767 97.8851C71.0926 96.5746 72.7067 95.264 75.3295 96.1713C76.1366 96.4737 76.7419 97.0786 77.3471 97.5826C78.3559 98.5907 78.9612 98.994 80.0709 98.3891C80.3735 98.1875 80.6762 97.9859 80.9788 97.6835C82.0885 96.7762 83.5008 95.5665 85.3167 96.877C85.7202 97.1794 86.1237 97.4818 86.5272 97.8851C87.6369 98.8932 88.3431 99.498 89.6545 98.8932C90.2598 98.5907 90.8651 98.1875 91.4703 97.6835C92.58 96.7762 93.6897 95.8689 95.2029 95.9697C96.4135 95.9697 97.3214 96.6754 98.2293 97.2802C99.339 98.0867 100.247 98.6915 101.558 98.1875C101.861 98.0867 102.063 98.1875 102.164 98.4899C102.265 98.7924 102.164 98.994 101.861 99.0948C100.045 99.8004 98.7337 98.8932 97.624 98.0867C96.817 97.4818 96.0099 96.9778 95.102 96.9778C93.8915 96.9778 92.9835 97.6835 91.9747 98.4899C91.3695 98.994 90.6633 99.498 89.8563 99.9013C87.9395 100.708 86.729 99.5988 85.6193 98.6915C85.3167 98.3891 84.9131 98.0867 84.5096 97.7843C83.3999 96.9778 82.5929 97.5826 81.3823 98.5907C81.0797 98.8932 80.7771 99.0948 80.3735 99.2964C78.6586 100.405 77.448 99.2964 76.4392 98.3891C75.9348 97.8851 75.3295 97.381 74.7243 97.1794C72.6058 96.4737 71.2943 97.4818 69.5794 98.7924C69.3776 98.994 69.1759 99.0948 68.9741 99.2964C68.7723 99.498 67.8644 100.103 66.7547 100.103Z" fill="#2C3647"/>
<path d="M48.6966 129.237C47.5869 129.237 46.5781 128.632 45.7711 128.128C45.5693 127.926 45.4684 127.624 45.6702 127.422C45.872 127.221 46.1746 127.12 46.3764 127.322C47.9905 128.531 49.1001 128.531 50.3107 127.624C50.5125 127.422 50.7142 127.221 50.916 127.019C52.0257 126.011 53.2362 124.902 55.1529 125.91C55.5564 126.112 55.8591 126.515 56.2626 126.818C56.9688 127.422 57.6749 128.128 58.3811 127.926C58.7846 127.826 59.1881 127.422 59.4908 127.019C59.6925 126.717 59.8943 126.515 60.1969 126.313C61.004 125.709 61.9119 125.305 63.0216 125.104C65.1401 124.902 66.5524 125.91 67.9647 127.12L68.2673 127.422C69.7805 128.632 70.8902 128.531 72.1008 127.221C73.7148 125.406 75.228 124.499 77.75 125.709C78.2544 126.011 78.8597 126.313 79.3641 126.616C80.5747 127.422 81.6844 128.128 83.0967 128.027C83.9037 127.926 84.4081 127.322 84.9125 126.616C85.5178 125.91 86.224 125.003 87.4345 124.801C89.7548 124.398 91.6715 126.011 93.2856 127.725C93.4873 127.926 93.4873 128.229 93.2856 128.43C93.0838 128.632 92.7812 128.632 92.5794 128.43C91.0662 126.918 89.4521 125.507 87.5354 125.809C86.6275 125.91 86.224 126.515 85.6187 127.221C85.0134 127.926 84.3073 128.834 83.0967 128.934C81.3817 129.136 79.9694 128.229 78.7589 127.422C78.2545 127.12 77.75 126.817 77.2456 126.515C75.3289 125.608 74.2192 126.213 72.8069 127.725C71.1928 129.439 69.5788 129.539 67.662 128.027L67.3594 127.725C66.048 126.616 64.8374 125.709 63.1224 125.91C62.3154 126.011 61.5084 126.313 60.8022 126.818C60.6004 127.019 60.3987 127.221 60.1969 127.422C59.7934 127.926 59.289 128.531 58.482 128.632C57.2714 128.834 56.3635 128.027 55.5565 127.221C55.2538 126.918 54.8503 126.616 54.5477 126.414C53.3371 125.709 52.6309 126.313 51.5213 127.322C51.3195 127.523 51.1177 127.725 50.8151 127.926C50.2098 128.934 49.4028 129.237 48.6966 129.237Z" fill="#2C3647"/>
<path d="M68.7725 158.471C68.4699 158.471 68.1673 158.471 67.8646 158.27C67.0576 157.967 66.4523 157.362 65.9479 156.758C65.7461 156.455 65.5444 156.253 65.3426 156.052C63.8294 154.641 62.4171 155.346 60.2986 156.657C59.8951 156.959 59.4916 157.161 58.9872 157.463C57.474 158.27 56.1625 158.471 55.0529 158.068C54.2458 157.766 53.8423 157.161 53.4388 156.556C53.1361 156.153 52.9344 155.749 52.5309 155.548C50.9168 154.439 48.7983 155.145 46.3772 157.766C46.1754 157.967 45.8728 157.967 45.671 157.766C45.4693 157.564 45.4693 157.262 45.671 157.06C48.4957 154.136 51.0177 153.33 53.1361 154.741C53.6405 155.044 53.9432 155.548 54.2458 156.052C54.5485 156.556 54.8511 156.959 55.3555 157.161C56.1625 157.463 57.1713 157.262 58.3819 156.657C58.7854 156.455 59.1889 156.153 59.5925 155.951C61.4083 154.842 63.6277 153.431 65.847 155.447C66.1497 155.649 66.3514 155.951 66.5532 156.253C67.0576 156.758 67.4611 157.262 68.0664 157.564C68.9743 157.866 69.7813 157.362 70.5884 156.758H70.6893C72.606 155.245 74.6236 153.733 77.4482 154.842C78.2553 155.145 78.7597 155.749 79.3649 156.153C80.3737 157.161 80.979 157.564 82.0887 156.758C82.2905 156.556 82.4922 156.455 82.694 156.253C84.0054 155.245 85.5186 154.036 87.4353 155.548C87.738 155.749 87.9397 155.951 88.1415 156.153C89.3521 157.161 90.26 157.967 91.7732 157.161C92.2776 156.858 92.782 156.455 93.2864 156.052C94.4969 155.145 95.9093 154.036 97.6242 154.338C98.633 154.54 99.5409 155.145 100.247 155.649C101.458 156.455 102.366 157.161 103.98 156.253C104.181 156.153 104.484 156.253 104.686 156.455C104.787 156.657 104.686 156.959 104.484 157.161C102.366 158.27 100.953 157.362 99.7427 156.455C99.0365 155.951 98.3304 155.447 97.5233 155.346C96.2119 155.044 95.1022 155.951 93.9925 156.858C93.4881 157.262 92.8829 157.766 92.2776 158.068C90.1591 159.177 88.8477 158.068 87.5362 156.959C87.3345 156.758 87.0318 156.556 86.8301 156.354C85.6195 155.346 84.7116 155.951 83.2993 157.06C83.0975 157.262 82.8957 157.463 82.5931 157.564C80.7773 158.874 79.5667 157.766 78.6588 156.959C78.1544 156.556 77.65 156.052 77.0447 155.85C74.7245 154.943 73.1104 156.153 71.2945 157.564H71.1937C70.5884 157.866 69.7813 158.471 68.7725 158.471Z" fill="#2C3647"/>
<circle cx="174.837" cy="126.41" r="34.0401" stroke="#2C3647"/>
<circle cx="28.8428" cy="18.8724" r="18.3724" stroke="#2C3647"/>
<circle cx="74.4214" cy="18.8724" r="18.3724" stroke="#2C3647"/>
<circle cx="120" cy="18.8724" r="18.3724" stroke="#2C3647"/>
<path d="M116.273 29.0457C116.775 29.0457 117.182 28.6387 117.182 28.1366C117.182 27.6346 116.775 27.2275 116.273 27.2275C115.771 27.2275 115.364 27.6346 115.364 28.1366C115.364 28.6387 115.771 29.0457 116.273 29.0457Z" stroke="#2C3647" stroke-linecap="round" stroke-linejoin="round"/>
<path d="M126.273 29.0457C126.775 29.0457 127.182 28.6387 127.182 28.1366C127.182 27.6346 126.775 27.2275 126.273 27.2275C125.771 27.2275 125.364 27.6346 125.364 28.1366C125.364 28.6387 125.771 29.0457 126.273 29.0457Z" stroke="#2C3647" stroke-linecap="round" stroke-linejoin="round"/>
<path d="M109 9.95459H112.636L115.073 22.1273C115.156 22.5459 115.384 22.9218 115.716 23.1894C116.048 23.457 116.464 23.5991 116.891 23.591H125.727C126.154 23.5991 126.57 23.457 126.902 23.1894C127.235 22.9218 127.462 22.5459 127.545 22.1273L129 14.5H113.545" stroke="#2C3647" stroke-linecap="round" stroke-linejoin="round"/>
<circle cx="165.579" cy="18.8724" r="18.3724" stroke="#2C3647"/>
<circle cx="211.157" cy="18.8724" r="18.3724" stroke="#2C3647"/>
<path d="M211 8V30" stroke="#2B4657" stroke-linecap="round" stroke-linejoin="round"/>
<path d="M216 12H208.5C207.572 12 206.682 12.3687 206.025 13.0251C205.369 13.6815 205 14.5717 205 15.5C205 16.4283 205.369 17.3185 206.025 17.9749C206.682 18.6313 207.572 19 208.5 19H213.5C214.428 19 215.319 19.3687 215.975 20.0251C216.631 20.6815 217 21.5717 217 22.5C217 23.4283 216.631 24.3185 215.975 24.9749C215.319 25.6313 214.428 26 213.5 26H205" stroke="#2B4657" stroke-linecap="round" stroke-linejoin="round"/>
<path d="M189.574 104.764L197.431 111.217L174.142 147.069L153.11 122.829L160.042 115.737L171.863 129.163L172.503 129.889L173.047 129.089L189.574 104.764Z" fill="#FFC01E" stroke="#2C3647" stroke-width="1.5"/>
<g clip-path="url(#clip0_3007_4532)">
<path d="M149.823 98.279C149.712 98.279 149.712 98.279 149.823 98.279C148.269 98.0543 146.826 97.7172 145.495 97.3801C145.162 97.2677 145.051 97.0429 145.051 96.7058C145.162 96.3687 145.384 96.2563 145.717 96.2563C147.159 96.5934 148.491 96.8182 149.934 97.0429C150.267 97.0429 150.378 97.3801 150.378 97.7172C150.267 98.1667 150.045 98.279 149.823 98.279ZM141.277 96.3687H141.166C139.723 96.0316 138.391 95.5821 136.949 95.1326C136.616 95.0202 136.505 94.6831 136.616 94.4583C136.727 94.1212 137.06 94.0089 137.282 94.1212C138.613 94.5707 140.056 95.0202 141.388 95.3573C141.721 95.4697 141.832 95.6945 141.721 96.0316C141.721 96.2563 141.499 96.3687 141.277 96.3687ZM133.064 93.6717C132.953 93.6717 132.953 93.6717 132.842 93.6717C131.51 93.1099 130.178 92.548 128.847 91.9861C128.625 91.8738 128.403 91.5366 128.625 91.3119C128.736 91.0872 129.069 90.8624 129.291 91.0871C130.622 91.649 131.954 92.2109 133.286 92.7727C133.619 92.8851 133.73 93.2222 133.619 93.447C133.508 93.5594 133.286 93.6717 133.064 93.6717ZM125.184 90.0758C125.073 90.0758 124.962 90.0758 124.962 89.9634C123.63 89.2892 122.409 88.6149 121.077 87.8283C120.856 87.716 120.745 87.3788 120.856 87.0417C120.966 86.817 121.299 86.7046 121.632 86.817C122.853 87.4912 124.185 88.2778 125.406 88.8397C125.628 88.9521 125.739 89.2892 125.628 89.6263C125.628 89.9634 125.406 90.0758 125.184 90.0758ZM117.637 85.6932C117.526 85.6932 117.415 85.6932 117.304 85.5809C116.083 84.7942 114.862 84.0076 113.641 83.1086C113.419 82.8839 113.308 82.5468 113.53 82.322C113.752 82.0973 114.085 81.9849 114.307 82.2097C115.528 82.9963 116.638 83.8953 117.859 84.6819C118.081 84.7942 118.192 85.1314 117.97 85.4685C117.97 85.5809 117.859 85.6932 117.637 85.6932ZM110.534 80.6364C110.423 80.6364 110.312 80.6364 110.201 80.5241C109.091 79.6251 107.87 78.7261 106.871 77.7147C106.649 77.49 106.649 77.1529 106.76 76.9281C106.982 76.7034 107.315 76.7034 107.537 76.8157C108.647 77.7147 109.757 78.7261 110.867 79.6251C111.089 79.8498 111.2 80.1869 110.978 80.4117C110.867 80.5241 110.756 80.6364 110.534 80.6364ZM103.985 74.9054C103.875 74.9054 103.764 74.9054 103.653 74.793C102.654 73.7816 101.544 72.7703 100.545 71.6466C100.323 71.4218 100.323 71.0847 100.545 70.8599C100.767 70.6352 101.1 70.6352 101.322 70.8599C102.321 71.8713 103.32 72.8827 104.429 73.894C104.651 74.1188 104.651 74.4559 104.429 74.6806C104.318 74.9054 104.207 74.9054 103.985 74.9054ZM97.9922 68.6125C97.8812 68.6125 97.6592 68.5001 97.5483 68.3877C96.5494 67.264 95.6615 66.1403 94.7736 65.0165C94.5516 64.7918 94.6626 64.4547 94.8846 64.2299C95.1065 64.0052 95.4395 64.1175 95.6615 64.3423C96.5494 65.466 97.4373 66.5898 98.4361 67.7135C98.6581 67.9382 98.6581 68.2754 98.4361 68.5001C98.2142 68.5001 98.1032 68.6125 97.9922 68.6125ZM92.6648 61.6453C92.4429 61.6453 92.3319 61.533 92.2209 61.4206C91.333 60.1845 90.5561 58.9484 89.7792 57.7123C89.5572 57.5999 89.6682 57.2628 89.8902 57.038C90.1121 56.9256 90.4451 56.9256 90.6671 57.1504C91.444 58.3865 92.2209 59.6226 93.1088 60.7463C93.3307 60.9711 93.2198 61.3082 92.9978 61.533C92.8868 61.6453 92.7758 61.6453 92.6648 61.6453ZM88.0034 54.3411C87.7814 54.3411 87.6704 54.2287 87.5594 54.1163C86.7825 52.7678 86.1166 51.4193 85.4507 50.1832C85.3397 49.9585 85.4507 49.6214 85.6726 49.3966C85.8946 49.2843 86.2276 49.3966 86.4496 49.6214C87.1155 50.8575 87.7814 52.206 88.4473 53.4421C88.5583 53.6668 88.5583 54.0039 88.2253 54.2287C88.1144 54.2287 88.1144 54.3411 88.0034 54.3411ZM84.1188 46.4749C83.8969 46.4749 83.6749 46.3625 83.6749 46.1378C83.009 44.7893 82.454 43.4408 81.8991 42.0924C81.7881 41.7552 81.8991 41.5305 82.2321 41.4181C82.565 41.3057 82.787 41.4181 82.898 41.7552C83.4529 43.1037 83.8969 44.4522 84.5628 45.8007C84.6738 46.0254 84.5628 46.3625 84.2298 46.4749H84.1188Z" fill="#2C3647"/>
</g>
<path d="M170.5 16.398L161.5 11.208" stroke="#2C3647" stroke-linecap="round" stroke-linejoin="round"/>
<path d="M175 22.9979V14.9979C175 14.6472 174.907 14.3028 174.732 13.9991C174.556 13.6955 174.304 13.4433 174 13.2679L167 9.26795C166.696 9.09241 166.351 9 166 9C165.649 9 165.304 9.09241 165 9.26795L158 13.2679C157.696 13.4433 157.444 13.6955 157.268 13.9991C157.093 14.3028 157 14.6472 157 14.9979V22.9979C157 23.3487 157.093 23.6931 157.268 23.9968C157.444 24.3004 157.696 24.5526 158 24.7279L165 28.7279C165.304 28.9035 165.649 28.9959 166 28.9959C166.351 28.9959 166.696 28.9035 167 28.7279L174 24.7279C174.304 24.5526 174.556 24.3004 174.732 23.9968C174.907 23.6931 175 23.3487 175 22.9979Z" stroke="#2C3647" stroke-linecap="round" stroke-linejoin="round"/>
<path d="M157.27 13.958L166 19.008L174.73 13.958" stroke="#2C3647" stroke-linecap="round" stroke-linejoin="round"/>
<path d="M166 29.078V18.998" stroke="#2C3647" stroke-linecap="round" stroke-linejoin="round"/>
<path d="M20 11H25.6667C26.6686 11 27.6295 11.398 28.338 12.1065C29.0464 12.815 29.4444 13.7758 29.4444 14.7778V28C29.4444 27.2486 29.1459 26.5279 28.6146 25.9965C28.0832 25.4652 27.3626 25.1667 26.6111 25.1667H20V11Z" stroke="#2C3647" stroke-linecap="round" stroke-linejoin="round"/>
<path d="M38.8889 11H33.2222C32.2203 11 31.2594 11.398 30.5509 12.1065C29.8425 12.815 29.4444 13.7758 29.4444 14.7778V28C29.4444 27.2486 29.743 26.5279 30.2743 25.9965C30.8057 25.4652 31.5263 25.1667 32.2778 25.1667H38.8889V11Z" stroke="#2C3647" stroke-linecap="round" stroke-linejoin="round"/>
<path d="M66 16.2222L74 10L82 16.2222V26C82 26.4715 81.8127 26.9237 81.4793 27.2571C81.1459 27.5905 80.6937 27.7778 80.2222 27.7778H67.7778C67.3063 27.7778 66.8541 27.5905 66.5207 27.2571C66.1873 26.9237 66 26.4715 66 26V16.2222Z" stroke="#2C3647" stroke-linecap="round" stroke-linejoin="round"/>
<path d="M71.3333 27.7776V18.8887H76.6667V27.7776" stroke="#2C3647" stroke-linecap="round" stroke-linejoin="round"/>
<defs>
<clipPath id="clip0_3007_4532">
<rect width="68.368" height="56.9733" fill="white" transform="translate(81.8991 41.3057)"/>
</clipPath>
</defs>
</svg>
