<svg width="242" height="207" viewBox="0 0 242 207" fill="none" xmlns="http://www.w3.org/2000/svg">
<path d="M215.578 138.626H209.952V153.691H215.578V138.626Z" fill="#2C3647" stroke="#2C3647" stroke-miterlimit="10"/>
<path d="M74.6445 52.2026H69.0177V67.2675H74.6445V52.2026Z" fill="#2C3647" stroke="#2C3647" stroke-miterlimit="10"/>
<path d="M62.6956 183.461H57.0688V198.526H62.6956V183.461Z" fill="#2C3647" stroke="#2C3647" stroke-miterlimit="10"/>
<path d="M224.597 43.2954H74.9471V75.6968H224.597V43.2954Z" fill="white" stroke="#2C3647" stroke-miterlimit="10"/>
<path d="M185.329 51.5454H82.1303V67.4472H185.329V51.5454Z" fill="#EEE9E2" stroke="#2C3647" stroke-miterlimit="10"/>
<path d="M176.549 1H26.8993V33.4014H176.549V1Z" fill="white" stroke="#2C3647" stroke-miterlimit="10"/>
<path d="M137.281 9.24951H34.0826V25.1513H137.281V9.24951Z" fill="#EEE9E2" stroke="#2C3647" stroke-miterlimit="10"/>
<path d="M176.549 1H26.8993V33.4014H176.549V1Z" fill="white" stroke="#2C3647" stroke-miterlimit="10"/>
<path d="M137.281 9.24951H34.0826V25.1513H137.281V9.24951Z" fill="#EEE9E2" stroke="#2C3647" stroke-miterlimit="10"/>
<path d="M199.217 62.7842C201.398 62.7842 203.167 61.0177 203.167 58.8386C203.167 56.6596 201.398 54.8931 199.217 54.8931C197.035 54.8931 195.266 56.6596 195.266 58.8386C195.266 61.0177 197.035 62.7842 199.217 62.7842Z" fill="white" stroke="#2C3647" stroke-miterlimit="10"/>
<path d="M214.9 62.7842C217.082 62.7842 218.851 61.0177 218.851 58.8386C218.851 56.6596 217.082 54.8931 214.9 54.8931C212.718 54.8931 210.949 56.6596 210.949 58.8386C210.949 61.0177 212.718 62.7842 214.9 62.7842Z" fill="#EEE9E2" stroke="#2C3647" stroke-miterlimit="10"/>
<path d="M175.871 62.7842C178.053 62.7842 179.822 61.0177 179.822 58.8386C179.822 56.6596 178.053 54.8931 175.871 54.8931C173.689 54.8931 171.92 56.6596 171.92 58.8386C171.92 61.0177 173.689 62.7842 175.871 62.7842Z" fill="white" stroke="#2C3647" stroke-miterlimit="10"/>
<path d="M218.851 75.6968H80.5739V86.8161H218.851V75.6968Z" stroke="#2C3647" stroke-miterlimit="10"/>
<path d="M211.867 86.8555H62.2168V119.257H211.867V86.8555Z" fill="white" stroke="#2C3647" stroke-miterlimit="10"/>
<path d="M172.599 95.105H69.4V111.007H172.599V95.105Z" fill="#EEE9E2" stroke="#2C3647" stroke-miterlimit="10"/>
<path d="M186.486 106.344C188.668 106.344 190.437 104.578 190.437 102.399C190.437 100.22 188.668 98.4531 186.486 98.4531C184.304 98.4531 182.536 100.22 182.536 102.399C182.536 104.578 184.304 106.344 186.486 106.344Z" fill="#EEE9E2" stroke="#2C3647" stroke-miterlimit="10"/>
<path d="M202.17 106.344C204.352 106.344 206.12 104.578 206.12 102.399C206.12 100.22 204.352 98.4531 202.17 98.4531C199.988 98.4531 198.219 100.22 198.219 102.399C198.219 104.578 199.988 106.344 202.17 106.344Z" fill="white" stroke="#2C3647" stroke-miterlimit="10"/>
<path d="M163.141 106.344C165.323 106.344 167.092 104.578 167.092 102.399C167.092 100.22 165.323 98.4531 163.141 98.4531C160.959 98.4531 159.19 100.22 159.19 102.399C159.19 104.578 160.959 106.344 163.141 106.344Z" fill="white" stroke="#2C3647" stroke-miterlimit="10"/>
<path d="M206.12 119.257H67.8436V130.376H206.12V119.257Z" stroke="#2C3647" stroke-miterlimit="10"/>
<path d="M211.867 130.257H62.2168V162.658H211.867V130.257Z" fill="white" stroke="#2C3647" stroke-miterlimit="10"/>
<path d="M172.599 138.626H69.4V154.528H172.599V138.626Z" fill="#EEE9E2" stroke="#2C3647" stroke-miterlimit="10"/>
<path d="M186.486 149.745C188.668 149.745 190.437 147.979 190.437 145.8C190.437 143.62 188.668 141.854 186.486 141.854C184.304 141.854 182.536 143.62 182.536 145.8C182.536 147.979 184.304 149.745 186.486 149.745Z" fill="white" stroke="#2C3647" stroke-miterlimit="10"/>
<path d="M202.17 149.745C204.352 149.745 206.12 147.979 206.12 145.8C206.12 143.62 204.352 141.854 202.17 141.854C199.988 141.854 198.219 143.62 198.219 145.8C198.219 147.979 199.988 149.745 202.17 149.745Z" fill="#EEE9E2" stroke="#2C3647" stroke-miterlimit="10"/>
<path d="M163.141 149.745C165.323 149.745 167.092 147.979 167.092 145.8C167.092 143.62 165.323 141.854 163.141 141.854C160.959 141.854 159.19 143.62 159.19 145.8C159.19 147.979 160.959 149.745 163.141 149.745Z" fill="white" stroke="#2C3647" stroke-miterlimit="10"/>
<path d="M206.12 162.658H67.8436V173.777H206.12V162.658Z" stroke="#2C3647" stroke-miterlimit="10"/>
<path d="M211.867 173.777H62.2168V206.179H211.867V173.777Z" fill="white" stroke="#2C3647" stroke-miterlimit="10"/>
<path d="M172.599 182.027H69.4V197.929H172.599V182.027Z" fill="#EEE9E2" stroke="#2C3647" stroke-miterlimit="10"/>
<path d="M186.486 193.266C188.668 193.266 190.437 191.5 190.437 189.321C190.437 187.141 188.668 185.375 186.486 185.375C184.304 185.375 182.536 187.141 182.536 189.321C182.536 191.5 184.304 193.266 186.486 193.266Z" fill="#EEE9E2" stroke="#2C3647" stroke-miterlimit="10"/>
<path d="M202.17 193.266C204.352 193.266 206.12 191.5 206.12 189.321C206.12 187.141 204.352 185.375 202.17 185.375C199.988 185.375 198.219 187.141 198.219 189.321C198.219 191.5 199.988 193.266 202.17 193.266Z" fill="white" stroke="#2C3647" stroke-miterlimit="10"/>
<path d="M163.141 193.266C165.323 193.266 167.092 191.5 167.092 189.321C167.092 187.141 165.323 185.375 163.141 185.375C160.959 185.375 159.19 187.141 159.19 189.321C159.19 191.5 160.959 193.266 163.141 193.266Z" fill="white" stroke="#2C3647" stroke-miterlimit="10"/>
<path d="M159.709 38.9912H168.089" stroke="#2C3647" stroke-miterlimit="10" stroke-linecap="round" stroke-linejoin="round"/>
<path d="M101.645 38.9912H150.131" stroke="#2C3647" stroke-miterlimit="10" stroke-linecap="round" stroke-linejoin="round"/>
<path d="M82.205 54.5896C80.8396 54.5896 79.5362 54.9618 78.357 55.644C78.4811 55.0858 78.5432 54.4656 78.5432 53.8454C78.5432 48.0157 73.8264 43.3022 67.9924 43.3022C62.8411 43.3022 58.5586 47.0234 57.6277 51.9228C56.5726 51.5507 55.5175 51.3027 54.3383 51.3027C49.187 51.3027 45.0287 55.4579 45.0287 60.6055C45.0287 65.753 49.187 69.9083 54.3383 69.9083H82.205C86.4253 69.9083 89.8388 66.4972 89.8388 62.28C89.8388 58.0627 86.4253 54.5896 82.205 54.5896Z" fill="white" stroke="#263238" stroke-miterlimit="10"/>
<path d="M230.825 122.629C228.961 122.629 227.252 123.094 225.699 124.025C225.854 123.249 225.932 122.474 225.932 121.622C225.932 113.869 219.641 107.59 211.874 107.59C204.961 107.59 199.291 112.552 198.048 119.063C196.65 118.521 195.175 118.288 193.699 118.288C186.864 118.288 181.272 123.87 181.272 130.691C181.272 137.513 186.864 143.095 193.699 143.095H230.825C236.495 143.095 241 138.521 241 132.94C241 127.358 236.495 122.629 230.825 122.629Z" fill="white" stroke="#263238" stroke-miterlimit="10"/>
<path d="M224.301 145.653H227.408" stroke="#263238" stroke-miterlimit="10" stroke-linecap="round" stroke-linejoin="round"/>
<path d="M209.155 145.653H220.029" stroke="#263238" stroke-miterlimit="10" stroke-linecap="round" stroke-linejoin="round"/>
<path d="M198.903 108.211C200.379 107.048 201.699 106.273 204.495 105.885" stroke="#263238" stroke-miterlimit="10" stroke-linecap="round" stroke-linejoin="round"/>
<path d="M195.175 113.87C195.175 113.87 195.408 112.242 196.728 110.459" stroke="#263238" stroke-miterlimit="10" stroke-linecap="round" stroke-linejoin="round"/>
<path d="M77.1941 169.839C74.398 169.839 71.8349 170.615 69.5048 171.855C69.7378 170.692 69.8155 169.452 69.8155 168.212C69.8155 156.583 60.3397 147.126 48.6893 147.126C38.3592 147.126 29.7378 154.568 27.9514 164.336C25.932 163.56 23.6796 163.095 21.3495 163.095C11.0194 163.095 2.70868 171.467 2.70868 181.7C2.70868 192.01 11.097 200.305 21.3495 200.305H77.1164C85.5825 200.305 92.4951 193.483 92.4951 184.956C92.5728 176.739 85.7378 169.839 77.1941 169.839Z" fill="white" stroke="#263238" stroke-miterlimit="10"/>
<path d="M7.13583 198.91C7.83486 199.375 8.68923 199.84 9.5436 200.305" stroke="#263238" stroke-miterlimit="10" stroke-linecap="round" stroke-linejoin="round"/>
<path d="M0.999969 191.778C0.999969 191.778 1.77667 194.026 4.18444 196.507" stroke="#263238" stroke-miterlimit="10" stroke-linecap="round" stroke-linejoin="round"/>
<path d="M35.4076 146.041C37.8154 144.413 41.4658 142.785 46.4367 142.94" stroke="#263238" stroke-miterlimit="10" stroke-linecap="round" stroke-linejoin="round"/>
<path d="M32.0679 149.142C32.0679 149.142 32.6893 148.289 33.932 147.204" stroke="#263238" stroke-miterlimit="10" stroke-linecap="round" stroke-linejoin="round"/>
<path d="M210.18 147.227H210.68V146.727V143.101C210.68 140.349 211.773 137.709 213.719 135.763C215.666 133.817 218.305 132.723 221.057 132.723C223.81 132.723 226.449 133.817 228.396 135.763C230.342 137.709 231.435 140.349 231.435 143.101V146.727V147.227H231.935H233.748C234.577 147.227 235.372 147.556 235.958 148.142C236.545 148.729 236.874 149.524 236.874 150.353V164.856C236.874 165.685 236.545 166.48 235.958 167.067C235.372 167.653 234.577 167.982 233.748 167.982H208.367C207.538 167.982 206.743 167.653 206.157 167.067C205.57 166.48 205.241 165.685 205.241 164.856V150.353C205.241 148.635 206.649 147.227 208.367 147.227H210.18ZM218.745 163.043V163.543H219.245H222.87H223.37V163.043V159.204C224.037 158.753 224.559 158.115 224.869 157.367C225.217 156.528 225.278 155.597 225.043 154.72C224.808 153.843 224.29 153.067 223.569 152.514C222.849 151.962 221.966 151.662 221.057 151.662C220.149 151.662 219.266 151.962 218.546 152.514C217.825 153.067 217.307 153.843 217.072 154.72C216.837 155.597 216.898 156.528 217.246 157.367C217.555 158.115 218.078 158.753 218.745 159.204V163.043ZM215.119 146.727V147.227H215.619H226.496H226.996V146.727V143.101C226.996 141.526 226.371 140.015 225.257 138.901C224.143 137.788 222.633 137.162 221.057 137.162C219.482 137.162 217.972 137.788 216.858 138.901C215.744 140.015 215.119 141.526 215.119 143.101V146.727Z" fill="#FFC01E" stroke="#2C3647"/>
</svg>
