<svg width="242" height="199" viewBox="0 0 242 199" fill="none" xmlns="http://www.w3.org/2000/svg">
<path d="M21.3207 6.63037L1.01133 179.249C0.870783 180.375 2.06545 181.149 3.0493 180.516L16.1204 172.493C17.7367 171.508 19.8449 171.931 20.899 173.549L37.273 197.968L44.0897 95.3675L21.3207 6.63037Z" fill="#EEE9E2" stroke="#2C3647" stroke-miterlimit="10" stroke-linecap="round" stroke-linejoin="round"/>
<path d="M21.1795 10.9221L2.83787 174.885C2.62705 176.504 4.45419 177.489 5.71913 176.574L15.2765 169.537C17.3847 167.989 20.3363 168.552 21.7417 170.733L32.9154 187.763C33.4776 188.607 34.8128 188.185 34.7425 187.13L21.7417 10.9221C21.7417 10.5702 21.1795 10.5702 21.1795 10.9221Z" fill="#EEE9E2" stroke="#2C3647" stroke-miterlimit="10" stroke-linecap="round" stroke-linejoin="round"/>
<path d="M18.0186 168.622C19.4944 168.622 20.8999 169.326 21.7432 170.663L32.9169 187.693C33.4791 188.537 34.8143 188.115 34.744 187.059L33.1277 165.526L17.7375 168.552C17.8781 168.552 17.9484 168.622 18.0186 168.622Z" fill="#EEE9E2" stroke="#2C3647" stroke-miterlimit="10" stroke-linecap="round" stroke-linejoin="round"/>
<path d="M21.7412 6.48877L37.2719 197.896L218.088 163.415L175.572 14.0888L21.7412 6.48877Z" fill="#EEE9E2" stroke="#2C3647" stroke-miterlimit="10" stroke-linecap="round" stroke-linejoin="round"/>
<path d="M30.1044 10.6406L40.7861 187.763L210.851 156.8L175.011 19.1554L30.1044 10.6406Z" fill="white" stroke="#2C3647" stroke-miterlimit="10" stroke-linecap="round" stroke-linejoin="round"/>
<path d="M40.5063 97.8298L48.5879 181.782L203.122 153.634L188.786 90.5112L40.5063 97.8298Z" fill="white" stroke="#2C3647" stroke-miterlimit="10" stroke-linecap="round" stroke-linejoin="round"/>
<path d="M70.3014 177.628L67.7715 150.606" stroke="#2C3647" stroke-miterlimit="10" stroke-linecap="round" stroke-linejoin="round"/>
<path d="M93.9824 173.406L91.5228 150.958" stroke="#2C3647" stroke-miterlimit="10" stroke-linecap="round" stroke-linejoin="round"/>
<path d="M117.173 168.902L114.292 150.958" stroke="#2C3647" stroke-miterlimit="10" stroke-linecap="round" stroke-linejoin="round"/>
<path d="M141.068 164.821L137.625 143.358" stroke="#2C3647" stroke-miterlimit="10" stroke-linecap="round" stroke-linejoin="round"/>
<path d="M162.079 161.022L159.127 140.122" stroke="#2C3647" stroke-miterlimit="10" stroke-linecap="round" stroke-linejoin="round"/>
<path d="M182.248 157.292L177.891 132.099" stroke="#2C3647" stroke-miterlimit="10" stroke-linecap="round" stroke-linejoin="round"/>
<path d="M26.2408 8.67041L174.239 16.6926C174.239 16.6926 188.645 59.9001 202.981 84.3186C217.317 108.737 241 107.119 241 107.119C241 107.119 186.748 136.815 144.513 152.648C100.521 169.115 62.4322 172.071 62.4322 172.071C62.4322 172.071 27.6463 124.571 26.2408 8.67041Z" fill="white" stroke="#2C3647" stroke-miterlimit="10" stroke-linecap="round" stroke-linejoin="round"/>
<path d="M43.1749 1C40.4342 1 38.4665 3.46297 37.834 7.26297L40.645 7.40371C41.0667 5.22223 41.9802 3.81482 43.1749 3.81482C44.6507 3.81482 46.267 6.13704 46.267 9.51482C46.267 12.8926 44.6507 15.2148 43.1749 15.2148C42.4019 15.2148 41.7694 15.8482 41.7694 16.6222C41.7694 17.3963 42.4019 18.0296 43.1749 18.0296C46.4778 18.0296 49.078 14.3 49.078 9.51482C49.0077 4.72963 46.4778 1 43.1749 1Z" fill="white" stroke="#2C3647" stroke-miterlimit="10"/>
<path d="M47.1832 11.7666C47.0426 12.2592 46.9021 12.7518 46.6913 13.2444" stroke="#2C3647" stroke-width="0.75" stroke-miterlimit="10" stroke-linecap="round" stroke-linejoin="round"/>
<path d="M39.1717 5.99581C39.1717 5.99581 40.2258 2.19581 43.3179 2.40692C45.7775 2.54766 47.8155 6.20692 47.4641 10.0773" stroke="#2C3647" stroke-width="0.75" stroke-miterlimit="10" stroke-linecap="round" stroke-linejoin="round"/>
<path d="M67.5603 2.26611C64.8196 2.26611 62.8519 4.72908 62.2194 8.52908L65.0304 8.66982C65.452 6.48834 66.3656 5.08093 67.5603 5.08093C69.036 5.08093 70.6523 7.40315 70.6523 10.7809C70.6523 14.1587 69.036 16.4809 67.5603 16.4809C66.7872 16.4809 66.1548 17.1143 66.1548 17.8884C66.1548 18.6624 66.7872 19.2958 67.5603 19.2958C70.8632 19.2958 73.4633 15.5661 73.4633 10.7809C73.4633 5.99575 70.8632 2.26611 67.5603 2.26611Z" fill="white" stroke="#2C3647" stroke-miterlimit="10"/>
<path d="M71.6392 13.0327C71.4986 13.5253 71.3581 14.0179 71.1473 14.5105" stroke="#2C3647" stroke-width="0.75" stroke-miterlimit="10" stroke-linecap="round" stroke-linejoin="round"/>
<path d="M63.6277 7.26241C63.6277 7.26241 64.6818 3.46241 67.7739 3.67352C70.2335 3.81426 72.2715 7.47352 71.9201 11.3439" stroke="#2C3647" stroke-width="0.75" stroke-miterlimit="10" stroke-linecap="round" stroke-linejoin="round"/>
<path d="M116.402 4.729C113.662 4.729 111.694 7.19197 111.061 10.992L113.872 11.1327C114.294 8.95123 115.208 7.54382 116.402 7.54382C117.878 7.54382 119.494 9.86605 119.494 13.2438C119.494 16.6216 117.878 18.9438 116.402 18.9438C115.629 18.9438 114.997 19.5772 114.997 20.3512C114.997 21.1253 115.629 21.7587 116.402 21.7587C119.705 21.7587 122.305 18.029 122.305 13.2438C122.305 8.45864 119.705 4.729 116.402 4.729Z" fill="white" stroke="#2C3647" stroke-miterlimit="10"/>
<path d="M120.479 15.4961C120.338 15.9887 120.198 16.4813 119.987 16.9739" stroke="#2C3647" stroke-width="0.75" stroke-miterlimit="10" stroke-linecap="round" stroke-linejoin="round"/>
<path d="M112.466 9.72628C112.466 9.72628 113.52 5.92628 116.612 6.13739C119.072 6.27813 121.11 9.93739 120.758 13.8078" stroke="#2C3647" stroke-width="0.75" stroke-miterlimit="10" stroke-linecap="round" stroke-linejoin="round"/>
<path d="M141.279 5.78516C138.539 5.78516 136.571 8.24812 135.938 12.0481L138.749 12.1889C139.171 10.0074 140.085 8.59997 141.279 8.59997C142.755 8.59997 144.371 10.9222 144.371 14.3C144.371 17.6778 142.755 20 141.279 20C140.506 20 139.874 20.6333 139.874 21.4074C139.874 22.1815 140.506 22.8148 141.279 22.8148C144.582 22.8148 147.182 19.0852 147.182 14.3C147.182 9.51479 144.582 5.78516 141.279 5.78516Z" fill="white" stroke="#2C3647" stroke-miterlimit="10"/>
<path d="M145.284 16.5518C145.143 17.0444 145.003 17.5369 144.792 18.0295" stroke="#2C3647" stroke-width="0.75" stroke-miterlimit="10" stroke-linecap="round" stroke-linejoin="round"/>
<path d="M137.273 10.7819C137.273 10.7819 138.327 6.98194 141.419 7.19305C143.879 7.33379 145.917 10.9931 145.565 14.8634" stroke="#2C3647" stroke-width="0.75" stroke-miterlimit="10" stroke-linecap="round" stroke-linejoin="round"/>
<path d="M165.172 7.05176C162.432 7.05176 160.464 9.51472 159.832 13.3147L162.643 13.4555C163.064 11.274 163.978 9.86657 165.172 9.86657C166.648 9.86657 168.264 12.1888 168.264 15.5666C168.264 18.9444 166.648 21.2666 165.172 21.2666C164.399 21.2666 163.767 21.8999 163.767 22.674C163.767 23.4481 164.399 24.0814 165.172 24.0814C168.475 24.0814 171.075 20.3518 171.075 15.5666C171.075 10.7814 168.475 7.05176 165.172 7.05176Z" fill="white" stroke="#2C3647" stroke-miterlimit="10"/>
<path d="M169.178 17.8184C169.038 18.311 168.897 18.8035 168.686 19.2961" stroke="#2C3647" stroke-width="0.75" stroke-miterlimit="10" stroke-linecap="round" stroke-linejoin="round"/>
<path d="M161.169 12.0476C161.169 12.0476 162.223 8.24757 165.315 8.45868C167.774 8.59942 169.812 12.2587 169.461 16.1291" stroke="#2C3647" stroke-width="0.75" stroke-miterlimit="10" stroke-linecap="round" stroke-linejoin="round"/>
<path d="M198.129 84.4597C187.939 67.1486 177.257 39.7745 173.463 29.6411L41.1356 24.293C41.0653 122.178 70.6509 162.641 70.6509 162.641C70.6509 162.641 104.383 160.038 143.245 145.471C180.56 131.538 225.115 108.034 225.115 108.034C225.115 108.034 210.778 106.063 198.129 84.4597Z" fill="white" stroke="#2C3647" stroke-miterlimit="10" stroke-linecap="round" stroke-linejoin="round"/>
<path d="M173.392 29.6411L41.1354 24.293C41.1354 33.9337 41.4165 43.0115 41.9085 51.5263L181.614 50.1893C178.03 41.6041 175.079 34.0041 173.392 29.6411Z" fill="#EEE9E2" stroke="#2C3647" stroke-miterlimit="10" stroke-linecap="round" stroke-linejoin="round"/>
<path d="M175.784 58.8454L182.038 58.6343" stroke="#2C3647" stroke-width="3" stroke-miterlimit="10" stroke-linecap="round" stroke-linejoin="round"/>
<path d="M157.371 59.4779L171.074 58.9854" stroke="#2C3647" stroke-width="3" stroke-miterlimit="10" stroke-linecap="round" stroke-linejoin="round"/>
<path d="M135.165 60.252L152.734 59.6187" stroke="#2C3647" stroke-miterlimit="10" stroke-linecap="round" stroke-linejoin="round"/>
<path d="M112.465 61.0259L131.229 60.3926" stroke="#2C3647" stroke-miterlimit="10" stroke-linecap="round" stroke-linejoin="round"/>
<path d="M90.6097 61.7309L107.827 61.168" stroke="#2C3647" stroke-miterlimit="10" stroke-linecap="round" stroke-linejoin="round"/>
<path d="M67.5596 62.5044L84.7768 61.9414" stroke="#2C3647" stroke-miterlimit="10" stroke-linecap="round" stroke-linejoin="round"/>
<path d="M47.2516 63.2075L63.2742 62.6445" stroke="#2C3647" stroke-miterlimit="10" stroke-linecap="round" stroke-linejoin="round"/>
<path d="M44.6506 78.3374L190.189 69.4004" stroke="#2C3647" stroke-miterlimit="10" stroke-linecap="round" stroke-linejoin="round"/>
<path d="M67.6308 77.0708C67.6308 77.0708 70.0202 115.845 95.5298 158.841" stroke="#2C3647" stroke-miterlimit="10" stroke-linecap="round" stroke-linejoin="round"/>
<path d="M91.1019 75.5229C91.1019 75.5229 93.7723 119.856 121.742 152.297" stroke="#2C3647" stroke-miterlimit="10" stroke-linecap="round" stroke-linejoin="round"/>
<path d="M112.396 74.1855C112.396 74.1855 113.802 115 145.214 144.345" stroke="#2C3647" stroke-miterlimit="10" stroke-linecap="round" stroke-linejoin="round"/>
<path d="M134.391 73.271C134.391 73.271 137.834 118.66 168.263 134.634" stroke="#2C3647" stroke-miterlimit="10" stroke-linecap="round" stroke-linejoin="round"/>
<path d="M157.513 71.4414C157.513 71.4414 159.972 105.782 191.104 124.571" stroke="#2C3647" stroke-miterlimit="10" stroke-linecap="round" stroke-linejoin="round"/>
<path d="M175.711 70.3154C175.711 70.3154 184.074 105.501 207.546 116.901" stroke="#2C3647" stroke-miterlimit="10" stroke-linecap="round" stroke-linejoin="round"/>
<path d="M47.8126 98.3226L196.514 81.9263" stroke="#2C3647" stroke-miterlimit="10" stroke-linecap="round" stroke-linejoin="round"/>
<path d="M51.6774 115.844C51.6774 115.844 83.4416 114.578 203.4 92.4814" stroke="#2C3647" stroke-miterlimit="10" stroke-linecap="round" stroke-linejoin="round"/>
<path d="M57.3008 134.352C57.3008 134.352 88.2216 137.871 209.375 99.2373" stroke="#2C3647" stroke-miterlimit="10" stroke-linecap="round" stroke-linejoin="round"/>
<path d="M63.9767 150.537C63.9767 150.537 89.7675 159.052 216.402 104.796" stroke="#2C3647" stroke-miterlimit="10" stroke-linecap="round" stroke-linejoin="round"/>
<path d="M98.2687 43.4336L50.6225 42.8002C49.8495 42.8002 49.1468 42.1669 49.0765 41.3928L48.6549 37.5224C48.5846 36.6076 49.2873 35.7632 50.2712 35.7632L97.3552 36.6076C98.0579 36.6076 98.6904 37.1002 98.8309 37.8039L99.8148 41.4632C100.096 42.4484 99.3229 43.4336 98.2687 43.4336Z" fill="white"/>
</svg>
