<svg width="892" height="126" viewBox="0 0 892 126" fill="none" xmlns="http://www.w3.org/2000/svg">
<mask id="path-1-inside-1_3007_4340" fill="white">
<path d="M94.8944 96.242V86.4535C93.8677 87.8987 92.8624 89.2588 91.6218 90.534C90.3812 91.8091 88.9267 92.9142 87.2583 93.8493C85.5899 94.7844 83.7504 95.5495 81.7398 96.1445C79.7292 96.7396 77.6116 97.0371 75.3871 97.0371C71.1091 97.0371 67.4943 96.272 64.5425 94.7419C61.5908 93.2117 59.1951 91.2353 57.3556 88.8125C55.5161 86.3898 54.19 83.627 53.3772 80.5242C52.5644 77.4214 52.158 74.2549 52.158 71.0245V59.2259C52.158 56.2345 0 96.242 0 96.242V69.0968L52.158 32.0807H73.3337V66.179C73.3337 67.9642 73.462 69.6644 73.7187 71.2795C73.9754 72.8947 74.4673 74.3398 75.1946 75.615C75.9218 76.8901 76.8844 77.8889 78.0822 78.6115C79.28 79.3341 80.8628 79.6954 82.8307 79.6954C86.5097 79.6954 89.3117 78.3353 91.2368 75.615C93.1619 72.8947 94.3811 69.7069 94.3811 66.0515V32.0807H114.251V96.242H94.8944ZM202.698 63.2463C202.698 67.6667 202.014 71.9171 200.645 75.9975C199.276 80.078 197.287 83.6695 194.677 86.7723C192.067 89.8752 188.88 92.3616 185.116 94.2318C181.351 96.102 177.073 97.0371 172.282 97.0371C168.346 97.0371 164.625 96.2508 161.117 94.6781C157.609 93.1055 154.871 90.959 152.903 88.2387H152.646V125.855H131.599V31.7506H151.62V39.5289H152.005C153.973 36.9786 156.689 34.7472 160.154 32.8345C163.619 30.9218 167.705 29.9655 172.41 29.9655C177.031 29.9655 181.223 30.8581 184.987 32.6432C188.752 34.4284 191.939 36.8511 194.549 39.9115C197.158 42.9718 199.169 46.5208 200.581 50.5587C201.992 54.5967 202.698 58.8258 202.698 63.2463ZM182.292 63.2463C182.292 61.2061 181.972 59.2084 181.33 57.2532C180.688 55.298 179.747 53.5766 178.506 52.0889C177.266 50.6012 175.704 49.3899 173.822 48.4548C171.94 47.5197 169.758 47.0522 167.277 47.0522C164.881 47.0522 162.742 47.5197 160.86 48.4548C158.978 49.3899 157.373 50.6225 156.047 52.1527C154.721 53.6828 153.694 55.4255 152.967 57.3807C152.24 59.3359 151.876 61.3336 151.876 63.3738C151.876 65.414 152.24 67.4117 152.967 69.3669C153.694 71.3221 154.721 73.0647 156.047 74.5949C157.373 76.125 158.978 77.3576 160.86 78.2927C162.742 79.2278 164.881 79.6954 167.277 79.6954C169.758 79.6954 171.94 79.2278 173.822 78.2927C175.704 77.3576 177.266 76.125 178.506 74.5949C179.747 73.0647 180.688 71.3008 181.33 69.3031C181.972 67.3054 182.292 65.2865 182.292 63.2463ZM287.016 63.2463C287.016 67.6667 286.331 71.9171 284.963 75.9975C283.594 80.078 281.604 83.6695 278.995 86.7723C276.385 89.8752 273.198 92.3616 269.434 94.2318C265.669 96.102 261.391 97.0371 256.6 97.0371C252.664 97.0371 248.942 96.2508 245.435 94.6781C241.927 93.1055 239.189 90.959 237.221 88.2387H236.964V125.855H215.917V31.7506H235.938V39.5289H236.323C238.29 36.9786 241.007 34.7472 244.472 32.8345C247.937 30.9218 252.023 29.9655 256.728 29.9655C261.348 29.9655 265.541 30.8581 269.305 32.6432C273.07 34.4284 276.257 36.8511 278.867 39.9115C281.476 42.9718 283.487 46.5208 284.898 50.5587C286.31 54.5967 287.016 58.8258 287.016 63.2463ZM266.61 63.2463C266.61 61.2061 266.289 59.2084 265.648 57.2532C265.006 55.298 264.065 53.5766 262.824 52.0889C261.584 50.6012 260.022 49.3899 258.14 48.4548C256.258 47.5197 254.076 47.0522 251.595 47.0522C249.199 47.0522 247.06 47.5197 245.178 48.4548C243.296 49.3899 241.691 50.6225 240.365 52.1527C239.039 53.6828 238.012 55.4255 237.285 57.3807C236.558 59.3359 236.194 61.3336 236.194 63.3738C236.194 65.414 236.558 67.4117 237.285 69.3669C238.012 71.3221 239.039 73.0647 240.365 74.5949C241.691 76.125 243.296 77.3576 245.178 78.2927C247.06 79.2278 249.199 79.6954 251.595 79.6954C254.076 79.6954 256.258 79.2278 258.14 78.2927C260.022 77.3576 261.584 76.125 262.824 74.5949C264.065 73.0647 265.006 71.3008 265.648 69.3031C266.289 67.3054 266.61 65.2865 266.61 63.2463ZM367.997 63.2463C367.997 68.4318 367.056 73.1285 365.174 77.3364C363.291 81.5443 360.725 85.1147 357.473 88.0475C354.222 90.9803 350.458 93.2542 346.18 94.8694C341.902 96.4846 337.324 97.2921 332.448 97.2921C327.656 97.2921 323.1 96.4846 318.78 94.8694C314.459 93.2542 310.694 90.9803 307.486 88.0475C304.277 85.1147 301.732 81.5443 299.85 77.3364C297.967 73.1285 297.026 68.4318 297.026 63.2463C297.026 58.0607 297.967 53.3853 299.85 49.2199C301.732 45.0544 304.277 41.5266 307.486 38.6363C310.694 35.746 314.459 33.5358 318.78 32.0057C323.1 30.4755 327.656 29.7104 332.448 29.7104C337.324 29.7104 341.902 30.4755 346.18 32.0057C350.458 33.5358 354.222 35.746 357.473 38.6363C360.725 41.5266 363.291 45.0544 365.174 49.2199C367.056 53.3853 367.997 58.0607 367.997 63.2463ZM347.72 63.2463C347.72 61.2061 347.377 59.2084 346.693 57.2532C346.009 55.298 345.025 53.5766 343.741 52.0889C342.458 50.6012 340.875 49.3899 338.993 48.4548C337.11 47.5197 334.929 47.0522 332.448 47.0522C329.966 47.0522 327.785 47.5197 325.902 48.4548C324.02 49.3899 322.459 50.6012 321.218 52.0889C319.977 53.5766 319.036 55.298 318.395 57.2532C317.753 59.2084 317.432 61.2061 317.432 63.2463C317.432 65.2865 317.753 67.2842 318.395 69.2394C319.036 71.1946 319.999 72.9585 321.282 74.5311C322.566 76.1038 324.148 77.3576 326.031 78.2927C327.913 79.2278 330.095 79.6954 332.576 79.6954C335.057 79.6954 337.239 79.2278 339.121 78.2927C341.003 77.3576 342.586 76.1038 343.87 74.5311C345.153 72.9585 346.115 71.1946 346.757 69.2394C347.399 67.2842 347.72 65.2865 347.72 63.2463ZM404.188 11.4761C404.188 13.0913 403.867 14.6002 403.226 16.0028C402.584 17.4055 401.729 18.6168 400.659 19.6369C399.59 20.6571 398.306 21.4646 396.809 22.0597C395.312 22.6547 393.75 22.9523 392.125 22.9523C388.702 22.9523 385.836 21.8259 383.526 19.5732C381.216 17.3205 380.061 14.6215 380.061 11.4761C380.061 9.94598 380.36 8.4796 380.959 7.07695C381.558 5.67431 382.414 4.46295 383.526 3.44284C384.638 2.42274 385.922 1.59391 387.376 0.956347C388.831 0.31878 390.413 0 392.125 0C393.75 0 395.312 0.297526 396.809 0.892588C398.306 1.48765 399.59 2.29522 400.659 3.31533C401.729 4.33543 402.584 5.54679 403.226 6.94944C403.867 8.35208 404.188 9.86097 404.188 11.4761ZM381.601 95.2519V31.7506H402.648V95.2519H381.601ZM461.299 95.2519V60.5685C461.299 58.7833 461.149 57.0832 460.849 55.468C460.55 53.8528 460.058 52.4289 459.374 51.1963C458.689 49.9637 457.727 48.9861 456.486 48.2635C455.245 47.5409 453.684 47.1797 451.802 47.1797C449.919 47.1797 448.272 47.5409 446.861 48.2635C445.449 48.9861 444.272 49.9849 443.331 51.2601C442.39 52.5352 441.684 54.0016 441.214 55.6593C440.743 57.3169 440.508 59.0383 440.508 60.8235V95.2519H419.332V31.7506H439.738V40.549H439.995C440.765 39.1889 441.77 37.85 443.01 36.5324C444.251 35.2147 445.706 34.0884 447.374 33.1533C449.042 32.2182 450.86 31.4531 452.828 30.8581C454.796 30.263 456.892 29.9655 459.117 29.9655C463.395 29.9655 467.031 30.7305 470.026 32.2607C473.02 33.7908 475.437 35.7673 477.277 38.19C479.116 40.6128 480.442 43.3968 481.255 46.5421C482.068 49.6874 482.474 52.8327 482.474 55.978V95.2519H461.299ZM521.232 47.4347V71.6621C521.232 74.6374 521.81 76.8689 522.965 78.3565C524.12 79.8442 526.195 80.588 529.189 80.588C530.216 80.588 531.307 80.503 532.462 80.3329C533.617 80.1629 534.579 79.9079 535.349 79.5679L535.606 94.8694C534.152 95.3794 532.312 95.8257 530.088 96.2083C527.863 96.5908 525.639 96.7821 523.414 96.7821C519.136 96.7821 515.543 96.2508 512.634 95.1882C509.725 94.1255 507.393 92.5954 505.639 90.5977C503.885 88.6 502.623 86.2198 501.853 83.457C501.083 80.6942 500.698 77.6127 500.698 74.2123V47.4347H490.431V31.7506H500.57V15.0465H521.232V31.7506H536.248V47.4347H521.232ZM627.753 95.2519V60.5685C627.753 58.7833 627.624 57.0619 627.368 55.4042C627.111 53.7466 626.64 52.3227 625.956 51.1326C625.271 49.9424 624.352 48.9861 623.197 48.2635C622.042 47.5409 620.523 47.1797 618.641 47.1797C616.844 47.1797 615.282 47.5622 613.956 48.3273C612.63 49.0924 611.518 50.1124 610.62 51.3876C609.721 52.6627 609.058 54.1291 608.63 55.7868C608.202 57.4444 607.989 59.1658 607.989 60.951V95.2519H586.941V59.0383C586.941 55.383 586.214 52.4927 584.759 50.3675C583.305 48.2423 580.995 47.1797 577.829 47.1797C574.492 47.1797 571.904 48.4973 570.065 51.1326C568.225 53.7678 567.306 56.9981 567.306 60.8235V95.2519H546.13V31.7506H566.536V40.549C567.562 39.1889 568.525 37.8713 569.68 36.5961C570.835 35.321 572.225 34.1946 573.851 33.217C575.476 32.2394 577.294 31.4531 579.305 30.8581C581.316 30.263 583.519 29.9655 585.914 29.9655C590.535 29.9655 594.449 30.9005 597.657 32.7707C600.866 34.6409 603.368 37.3187 605.165 40.804C607.304 37.4887 610.042 34.8535 613.379 32.8983C616.716 30.9431 620.78 29.9655 625.571 29.9655C629.934 29.9655 633.592 30.7518 636.544 32.3245C639.495 33.8971 641.87 35.9373 643.667 38.445C645.463 40.9528 646.768 43.7581 647.581 46.8609C648.394 49.9637 648.8 53.0027 648.8 55.978V95.2519H627.753ZM708.734 56.2331C708.734 52.9177 707.686 50.07 705.589 47.6897C703.493 45.3095 700.349 44.1194 696.157 44.1194C694.103 44.1194 692.221 44.4382 690.51 45.0757C688.799 45.7133 687.301 46.5846 686.018 47.6897C684.735 48.7948 683.708 50.0912 682.938 51.5789C682.168 53.0665 681.74 54.6179 681.654 56.2331H708.734ZM728.113 64.2664V66.8166C728.113 67.6667 728.07 68.4743 727.984 69.2394H681.654C681.826 71.0245 682.36 72.6397 683.259 74.0848C684.157 75.53 685.312 76.7838 686.724 77.8465C688.135 78.9091 689.718 79.7379 691.472 80.3329C693.226 80.928 695.044 81.2255 696.927 81.2255C700.263 81.2255 703.087 80.6092 705.397 79.3766C707.707 78.144 709.589 76.5501 711.044 74.5949L725.674 83.7758C722.68 88.1112 718.723 91.4478 713.803 93.7855C708.883 96.1233 703.172 97.2921 696.67 97.2921C691.879 97.2921 687.344 96.5483 683.066 95.0607C678.788 93.573 675.045 91.4053 671.837 88.5575C668.628 85.7097 666.104 82.2032 664.265 78.0377C662.425 73.8723 661.505 69.1119 661.505 63.7563C661.505 58.5708 662.404 53.8741 664.201 49.6662C665.997 45.4582 668.436 41.8879 671.516 38.9551C674.596 36.0223 678.232 33.7484 682.424 32.1332C686.617 30.518 691.151 29.7104 696.028 29.7104C700.734 29.7104 705.055 30.4968 708.99 32.0694C712.926 33.6421 716.306 35.916 719.129 38.8913C721.952 41.8667 724.156 45.4795 725.738 49.7299C727.321 53.9804 728.113 58.8258 728.113 64.2664ZM783.17 95.2519V60.5685C783.17 58.7833 783.02 57.0832 782.72 55.468C782.421 53.8528 781.929 52.4289 781.245 51.1963C780.56 49.9637 779.597 48.9861 778.357 48.2635C777.116 47.5409 775.555 47.1797 773.673 47.1797C771.79 47.1797 770.143 47.5409 768.732 48.2635C767.32 48.9861 766.143 49.9849 765.202 51.2601C764.261 52.5352 763.555 54.0016 763.085 55.6593C762.614 57.3169 762.379 59.0383 762.379 60.8235V95.2519H741.203V31.7506H761.609V40.549H761.866C762.636 39.1889 763.641 37.85 764.881 36.5324C766.122 35.2147 767.576 34.0884 769.245 33.1533C770.913 32.2182 772.731 31.4531 774.699 30.8581C776.667 30.263 778.763 29.9655 780.988 29.9655C785.266 29.9655 788.902 30.7305 791.897 32.2607C794.891 33.7908 797.308 35.7673 799.148 38.19C800.987 40.6128 802.313 43.3968 803.126 46.5421C803.939 49.6874 804.345 52.8327 804.345 55.978V95.2519H783.17ZM843.103 47.4347V71.6621C843.103 74.6374 843.681 76.8689 844.836 78.3565C845.991 79.8442 848.066 80.588 851.06 80.588C852.087 80.588 853.178 80.503 854.333 80.3329C855.488 80.1629 856.45 79.9079 857.22 79.5679L857.477 94.8694C856.023 95.3794 854.183 95.8257 851.959 96.2083C849.734 96.5908 847.51 96.7821 845.285 96.7821C841.007 96.7821 837.414 96.2508 834.505 95.1882C831.596 94.1255 829.264 92.5954 827.51 90.5977C825.756 88.6 824.494 86.2198 823.724 83.457C822.954 80.6942 822.569 77.6127 822.569 74.2123V47.4347H812.302V31.7506H822.441V15.0465H843.103V31.7506H858.119V47.4347H843.103ZM892 84.0308C892 87.6012 890.738 90.5765 888.214 92.9567C885.69 95.3369 882.674 96.5271 879.166 96.5271C877.369 96.5271 875.68 96.2083 874.097 95.5707C872.514 94.9331 871.124 94.0618 869.926 92.9567C868.728 91.8516 867.787 90.5552 867.102 89.0676C866.418 87.5799 866.076 85.9435 866.076 84.1583C866.076 82.4581 866.418 80.843 867.102 79.3128C867.787 77.7827 868.728 76.4438 869.926 75.2962C871.124 74.1486 872.514 73.2347 874.097 72.5547C875.68 71.8746 877.369 71.5346 879.166 71.5346C882.674 71.5346 885.69 72.7247 888.214 75.1049C890.738 77.4852 892 80.4604 892 84.0308Z"/>
</mask>
<path d="M94.8944 96.242V86.4535C93.8677 87.8987 92.8624 89.2588 91.6218 90.534C90.3812 91.8091 88.9267 92.9142 87.2583 93.8493C85.5899 94.7844 83.7504 95.5495 81.7398 96.1445C79.7292 96.7396 77.6116 97.0371 75.3871 97.0371C71.1091 97.0371 67.4943 96.272 64.5425 94.7419C61.5908 93.2117 59.1951 91.2353 57.3556 88.8125C55.5161 86.3898 54.19 83.627 53.3772 80.5242C52.5644 77.4214 52.158 74.2549 52.158 71.0245V59.2259C52.158 56.2345 0 96.242 0 96.242V69.0968L52.158 32.0807H73.3337V66.179C73.3337 67.9642 73.462 69.6644 73.7187 71.2795C73.9754 72.8947 74.4673 74.3398 75.1946 75.615C75.9218 76.8901 76.8844 77.8889 78.0822 78.6115C79.28 79.3341 80.8628 79.6954 82.8307 79.6954C86.5097 79.6954 89.3117 78.3353 91.2368 75.615C93.1619 72.8947 94.3811 69.7069 94.3811 66.0515V32.0807H114.251V96.242H94.8944ZM202.698 63.2463C202.698 67.6667 202.014 71.9171 200.645 75.9975C199.276 80.078 197.287 83.6695 194.677 86.7723C192.067 89.8752 188.88 92.3616 185.116 94.2318C181.351 96.102 177.073 97.0371 172.282 97.0371C168.346 97.0371 164.625 96.2508 161.117 94.6781C157.609 93.1055 154.871 90.959 152.903 88.2387H152.646V125.855H131.599V31.7506H151.62V39.5289H152.005C153.973 36.9786 156.689 34.7472 160.154 32.8345C163.619 30.9218 167.705 29.9655 172.41 29.9655C177.031 29.9655 181.223 30.8581 184.987 32.6432C188.752 34.4284 191.939 36.8511 194.549 39.9115C197.158 42.9718 199.169 46.5208 200.581 50.5587C201.992 54.5967 202.698 58.8258 202.698 63.2463ZM182.292 63.2463C182.292 61.2061 181.972 59.2084 181.33 57.2532C180.688 55.298 179.747 53.5766 178.506 52.0889C177.266 50.6012 175.704 49.3899 173.822 48.4548C171.94 47.5197 169.758 47.0522 167.277 47.0522C164.881 47.0522 162.742 47.5197 160.86 48.4548C158.978 49.3899 157.373 50.6225 156.047 52.1527C154.721 53.6828 153.694 55.4255 152.967 57.3807C152.24 59.3359 151.876 61.3336 151.876 63.3738C151.876 65.414 152.24 67.4117 152.967 69.3669C153.694 71.3221 154.721 73.0647 156.047 74.5949C157.373 76.125 158.978 77.3576 160.86 78.2927C162.742 79.2278 164.881 79.6954 167.277 79.6954C169.758 79.6954 171.94 79.2278 173.822 78.2927C175.704 77.3576 177.266 76.125 178.506 74.5949C179.747 73.0647 180.688 71.3008 181.33 69.3031C181.972 67.3054 182.292 65.2865 182.292 63.2463ZM287.016 63.2463C287.016 67.6667 286.331 71.9171 284.963 75.9975C283.594 80.078 281.604 83.6695 278.995 86.7723C276.385 89.8752 273.198 92.3616 269.434 94.2318C265.669 96.102 261.391 97.0371 256.6 97.0371C252.664 97.0371 248.942 96.2508 245.435 94.6781C241.927 93.1055 239.189 90.959 237.221 88.2387H236.964V125.855H215.917V31.7506H235.938V39.5289H236.323C238.29 36.9786 241.007 34.7472 244.472 32.8345C247.937 30.9218 252.023 29.9655 256.728 29.9655C261.348 29.9655 265.541 30.8581 269.305 32.6432C273.07 34.4284 276.257 36.8511 278.867 39.9115C281.476 42.9718 283.487 46.5208 284.898 50.5587C286.31 54.5967 287.016 58.8258 287.016 63.2463ZM266.61 63.2463C266.61 61.2061 266.289 59.2084 265.648 57.2532C265.006 55.298 264.065 53.5766 262.824 52.0889C261.584 50.6012 260.022 49.3899 258.14 48.4548C256.258 47.5197 254.076 47.0522 251.595 47.0522C249.199 47.0522 247.06 47.5197 245.178 48.4548C243.296 49.3899 241.691 50.6225 240.365 52.1527C239.039 53.6828 238.012 55.4255 237.285 57.3807C236.558 59.3359 236.194 61.3336 236.194 63.3738C236.194 65.414 236.558 67.4117 237.285 69.3669C238.012 71.3221 239.039 73.0647 240.365 74.5949C241.691 76.125 243.296 77.3576 245.178 78.2927C247.06 79.2278 249.199 79.6954 251.595 79.6954C254.076 79.6954 256.258 79.2278 258.14 78.2927C260.022 77.3576 261.584 76.125 262.824 74.5949C264.065 73.0647 265.006 71.3008 265.648 69.3031C266.289 67.3054 266.61 65.2865 266.61 63.2463ZM367.997 63.2463C367.997 68.4318 367.056 73.1285 365.174 77.3364C363.291 81.5443 360.725 85.1147 357.473 88.0475C354.222 90.9803 350.458 93.2542 346.18 94.8694C341.902 96.4846 337.324 97.2921 332.448 97.2921C327.656 97.2921 323.1 96.4846 318.78 94.8694C314.459 93.2542 310.694 90.9803 307.486 88.0475C304.277 85.1147 301.732 81.5443 299.85 77.3364C297.967 73.1285 297.026 68.4318 297.026 63.2463C297.026 58.0607 297.967 53.3853 299.85 49.2199C301.732 45.0544 304.277 41.5266 307.486 38.6363C310.694 35.746 314.459 33.5358 318.78 32.0057C323.1 30.4755 327.656 29.7104 332.448 29.7104C337.324 29.7104 341.902 30.4755 346.18 32.0057C350.458 33.5358 354.222 35.746 357.473 38.6363C360.725 41.5266 363.291 45.0544 365.174 49.2199C367.056 53.3853 367.997 58.0607 367.997 63.2463ZM347.72 63.2463C347.72 61.2061 347.377 59.2084 346.693 57.2532C346.009 55.298 345.025 53.5766 343.741 52.0889C342.458 50.6012 340.875 49.3899 338.993 48.4548C337.11 47.5197 334.929 47.0522 332.448 47.0522C329.966 47.0522 327.785 47.5197 325.902 48.4548C324.02 49.3899 322.459 50.6012 321.218 52.0889C319.977 53.5766 319.036 55.298 318.395 57.2532C317.753 59.2084 317.432 61.2061 317.432 63.2463C317.432 65.2865 317.753 67.2842 318.395 69.2394C319.036 71.1946 319.999 72.9585 321.282 74.5311C322.566 76.1038 324.148 77.3576 326.031 78.2927C327.913 79.2278 330.095 79.6954 332.576 79.6954C335.057 79.6954 337.239 79.2278 339.121 78.2927C341.003 77.3576 342.586 76.1038 343.87 74.5311C345.153 72.9585 346.115 71.1946 346.757 69.2394C347.399 67.2842 347.72 65.2865 347.72 63.2463ZM404.188 11.4761C404.188 13.0913 403.867 14.6002 403.226 16.0028C402.584 17.4055 401.729 18.6168 400.659 19.6369C399.59 20.6571 398.306 21.4646 396.809 22.0597C395.312 22.6547 393.75 22.9523 392.125 22.9523C388.702 22.9523 385.836 21.8259 383.526 19.5732C381.216 17.3205 380.061 14.6215 380.061 11.4761C380.061 9.94598 380.36 8.4796 380.959 7.07695C381.558 5.67431 382.414 4.46295 383.526 3.44284C384.638 2.42274 385.922 1.59391 387.376 0.956347C388.831 0.31878 390.413 0 392.125 0C393.75 0 395.312 0.297526 396.809 0.892588C398.306 1.48765 399.59 2.29522 400.659 3.31533C401.729 4.33543 402.584 5.54679 403.226 6.94944C403.867 8.35208 404.188 9.86097 404.188 11.4761ZM381.601 95.2519V31.7506H402.648V95.2519H381.601ZM461.299 95.2519V60.5685C461.299 58.7833 461.149 57.0832 460.849 55.468C460.55 53.8528 460.058 52.4289 459.374 51.1963C458.689 49.9637 457.727 48.9861 456.486 48.2635C455.245 47.5409 453.684 47.1797 451.802 47.1797C449.919 47.1797 448.272 47.5409 446.861 48.2635C445.449 48.9861 444.272 49.9849 443.331 51.2601C442.39 52.5352 441.684 54.0016 441.214 55.6593C440.743 57.3169 440.508 59.0383 440.508 60.8235V95.2519H419.332V31.7506H439.738V40.549H439.995C440.765 39.1889 441.77 37.85 443.01 36.5324C444.251 35.2147 445.706 34.0884 447.374 33.1533C449.042 32.2182 450.86 31.4531 452.828 30.8581C454.796 30.263 456.892 29.9655 459.117 29.9655C463.395 29.9655 467.031 30.7305 470.026 32.2607C473.02 33.7908 475.437 35.7673 477.277 38.19C479.116 40.6128 480.442 43.3968 481.255 46.5421C482.068 49.6874 482.474 52.8327 482.474 55.978V95.2519H461.299ZM521.232 47.4347V71.6621C521.232 74.6374 521.81 76.8689 522.965 78.3565C524.12 79.8442 526.195 80.588 529.189 80.588C530.216 80.588 531.307 80.503 532.462 80.3329C533.617 80.1629 534.579 79.9079 535.349 79.5679L535.606 94.8694C534.152 95.3794 532.312 95.8257 530.088 96.2083C527.863 96.5908 525.639 96.7821 523.414 96.7821C519.136 96.7821 515.543 96.2508 512.634 95.1882C509.725 94.1255 507.393 92.5954 505.639 90.5977C503.885 88.6 502.623 86.2198 501.853 83.457C501.083 80.6942 500.698 77.6127 500.698 74.2123V47.4347H490.431V31.7506H500.57V15.0465H521.232V31.7506H536.248V47.4347H521.232ZM627.753 95.2519V60.5685C627.753 58.7833 627.624 57.0619 627.368 55.4042C627.111 53.7466 626.64 52.3227 625.956 51.1326C625.271 49.9424 624.352 48.9861 623.197 48.2635C622.042 47.5409 620.523 47.1797 618.641 47.1797C616.844 47.1797 615.282 47.5622 613.956 48.3273C612.63 49.0924 611.518 50.1124 610.62 51.3876C609.721 52.6627 609.058 54.1291 608.63 55.7868C608.202 57.4444 607.989 59.1658 607.989 60.951V95.2519H586.941V59.0383C586.941 55.383 586.214 52.4927 584.759 50.3675C583.305 48.2423 580.995 47.1797 577.829 47.1797C574.492 47.1797 571.904 48.4973 570.065 51.1326C568.225 53.7678 567.306 56.9981 567.306 60.8235V95.2519H546.13V31.7506H566.536V40.549C567.562 39.1889 568.525 37.8713 569.68 36.5961C570.835 35.321 572.225 34.1946 573.851 33.217C575.476 32.2394 577.294 31.4531 579.305 30.8581C581.316 30.263 583.519 29.9655 585.914 29.9655C590.535 29.9655 594.449 30.9005 597.657 32.7707C600.866 34.6409 603.368 37.3187 605.165 40.804C607.304 37.4887 610.042 34.8535 613.379 32.8983C616.716 30.9431 620.78 29.9655 625.571 29.9655C629.934 29.9655 633.592 30.7518 636.544 32.3245C639.495 33.8971 641.87 35.9373 643.667 38.445C645.463 40.9528 646.768 43.7581 647.581 46.8609C648.394 49.9637 648.8 53.0027 648.8 55.978V95.2519H627.753ZM708.734 56.2331C708.734 52.9177 707.686 50.07 705.589 47.6897C703.493 45.3095 700.349 44.1194 696.157 44.1194C694.103 44.1194 692.221 44.4382 690.51 45.0757C688.799 45.7133 687.301 46.5846 686.018 47.6897C684.735 48.7948 683.708 50.0912 682.938 51.5789C682.168 53.0665 681.74 54.6179 681.654 56.2331H708.734ZM728.113 64.2664V66.8166C728.113 67.6667 728.07 68.4743 727.984 69.2394H681.654C681.826 71.0245 682.36 72.6397 683.259 74.0848C684.157 75.53 685.312 76.7838 686.724 77.8465C688.135 78.9091 689.718 79.7379 691.472 80.3329C693.226 80.928 695.044 81.2255 696.927 81.2255C700.263 81.2255 703.087 80.6092 705.397 79.3766C707.707 78.144 709.589 76.5501 711.044 74.5949L725.674 83.7758C722.68 88.1112 718.723 91.4478 713.803 93.7855C708.883 96.1233 703.172 97.2921 696.67 97.2921C691.879 97.2921 687.344 96.5483 683.066 95.0607C678.788 93.573 675.045 91.4053 671.837 88.5575C668.628 85.7097 666.104 82.2032 664.265 78.0377C662.425 73.8723 661.505 69.1119 661.505 63.7563C661.505 58.5708 662.404 53.8741 664.201 49.6662C665.997 45.4582 668.436 41.8879 671.516 38.9551C674.596 36.0223 678.232 33.7484 682.424 32.1332C686.617 30.518 691.151 29.7104 696.028 29.7104C700.734 29.7104 705.055 30.4968 708.99 32.0694C712.926 33.6421 716.306 35.916 719.129 38.8913C721.952 41.8667 724.156 45.4795 725.738 49.7299C727.321 53.9804 728.113 58.8258 728.113 64.2664ZM783.17 95.2519V60.5685C783.17 58.7833 783.02 57.0832 782.72 55.468C782.421 53.8528 781.929 52.4289 781.245 51.1963C780.56 49.9637 779.597 48.9861 778.357 48.2635C777.116 47.5409 775.555 47.1797 773.673 47.1797C771.79 47.1797 770.143 47.5409 768.732 48.2635C767.32 48.9861 766.143 49.9849 765.202 51.2601C764.261 52.5352 763.555 54.0016 763.085 55.6593C762.614 57.3169 762.379 59.0383 762.379 60.8235V95.2519H741.203V31.7506H761.609V40.549H761.866C762.636 39.1889 763.641 37.85 764.881 36.5324C766.122 35.2147 767.576 34.0884 769.245 33.1533C770.913 32.2182 772.731 31.4531 774.699 30.8581C776.667 30.263 778.763 29.9655 780.988 29.9655C785.266 29.9655 788.902 30.7305 791.897 32.2607C794.891 33.7908 797.308 35.7673 799.148 38.19C800.987 40.6128 802.313 43.3968 803.126 46.5421C803.939 49.6874 804.345 52.8327 804.345 55.978V95.2519H783.17ZM843.103 47.4347V71.6621C843.103 74.6374 843.681 76.8689 844.836 78.3565C845.991 79.8442 848.066 80.588 851.06 80.588C852.087 80.588 853.178 80.503 854.333 80.3329C855.488 80.1629 856.45 79.9079 857.22 79.5679L857.477 94.8694C856.023 95.3794 854.183 95.8257 851.959 96.2083C849.734 96.5908 847.51 96.7821 845.285 96.7821C841.007 96.7821 837.414 96.2508 834.505 95.1882C831.596 94.1255 829.264 92.5954 827.51 90.5977C825.756 88.6 824.494 86.2198 823.724 83.457C822.954 80.6942 822.569 77.6127 822.569 74.2123V47.4347H812.302V31.7506H822.441V15.0465H843.103V31.7506H858.119V47.4347H843.103ZM892 84.0308C892 87.6012 890.738 90.5765 888.214 92.9567C885.69 95.3369 882.674 96.5271 879.166 96.5271C877.369 96.5271 875.68 96.2083 874.097 95.5707C872.514 94.9331 871.124 94.0618 869.926 92.9567C868.728 91.8516 867.787 90.5552 867.102 89.0676C866.418 87.5799 866.076 85.9435 866.076 84.1583C866.076 82.4581 866.418 80.843 867.102 79.3128C867.787 77.7827 868.728 76.4438 869.926 75.2962C871.124 74.1486 872.514 73.2347 874.097 72.5547C875.68 71.8746 877.369 71.5346 879.166 71.5346C882.674 71.5346 885.69 72.7247 888.214 75.1049C890.738 77.4852 892 80.4604 892 84.0308Z" stroke="white" stroke-width="4" mask="url(#path-1-inside-1_3007_4340)"/>
</svg>
