<svg width="168" height="63" viewBox="0 0 168 63" fill="none" xmlns="http://www.w3.org/2000/svg">
<path d="M8.0769 0H23.4231V51.6187L8.0769 62.2692V0Z" fill="#FFC01E"/>
<path d="M17.8725 51.8626V50.0191C17.6791 50.2912 17.4898 50.5474 17.2561 50.7876C17.0225 51.0277 16.7485 51.2359 16.4343 51.412C16.1201 51.5881 15.7736 51.7322 15.3949 51.8443C15.0163 51.9563 14.6174 52.0124 14.1985 52.0124C13.3928 52.0124 12.7119 51.8683 12.156 51.5801C11.6001 51.2919 11.1489 50.9197 10.8024 50.4634C10.456 50.007 10.2062 49.4867 10.0531 48.9023C9.90001 48.3179 9.82347 47.7215 9.82347 47.1131V44.891C9.82347 44.3276 0 51.8626 0 51.8626V46.7501L9.82347 39.7784H13.8117V46.2005C13.8117 46.5368 13.8359 46.857 13.8842 47.1612C13.9326 47.4654 14.0252 47.7376 14.1622 47.9777C14.2992 48.2179 14.4805 48.406 14.7061 48.5421C14.9317 48.6782 15.2298 48.7462 15.6004 48.7462C16.2933 48.7462 16.821 48.4901 17.1836 47.9777C17.5462 47.4654 17.7758 46.865 17.7758 46.1765V39.7784H21.5181V51.8626H17.8725ZM38.1763 45.6482C38.1763 46.4807 38.0474 47.2813 37.7896 48.0498C37.5318 48.8183 37.1571 49.4947 36.6656 50.0791C36.1741 50.6635 35.5739 51.1318 34.8649 51.484C34.1558 51.8363 33.3501 52.0124 32.4477 52.0124C31.7065 52.0124 31.0055 51.8643 30.3448 51.5681C29.6842 51.2719 29.1685 50.8676 28.7979 50.3553H28.7495V57.4399H24.7855V39.7163H28.5562V41.1812H28.6287C28.9993 40.7009 29.5109 40.2806 30.1636 39.9204C30.8162 39.5602 31.5856 39.38 32.4719 39.38C33.3421 39.38 34.1317 39.5482 34.8407 39.8844C35.5497 40.2206 36.15 40.6769 36.6415 41.2533C37.1329 41.8297 37.5116 42.4981 37.7775 43.2586C38.0434 44.0191 38.1763 44.8156 38.1763 45.6482ZM34.3331 45.6482C34.3331 45.2639 34.2727 44.8877 34.1518 44.5194C34.031 44.1512 33.8537 43.827 33.62 43.5468C33.3864 43.2666 33.0923 43.0385 32.7378 42.8623C32.3833 42.6862 31.9724 42.5982 31.5051 42.5982C31.0539 42.5982 30.651 42.6862 30.2965 42.8623C29.942 43.0385 29.6399 43.2706 29.3901 43.5588C29.1403 43.847 28.9469 44.1752 28.81 44.5435C28.673 44.9117 28.6045 45.2879 28.6045 45.6722C28.6045 46.0565 28.673 46.4327 28.81 46.8009C28.9469 47.1692 29.1403 47.4974 29.3901 47.7856C29.6399 48.0738 29.942 48.3059 30.2965 48.482C30.651 48.6582 31.0539 48.7462 31.5051 48.7462C31.9724 48.7462 32.3833 48.6582 32.7378 48.482C33.0923 48.3059 33.3864 48.0738 33.62 47.7856C33.8537 47.4974 34.031 47.1652 34.1518 46.7889C34.2727 46.4127 34.3331 46.0324 34.3331 45.6482ZM54.0568 45.6482C54.0568 46.4807 53.9279 47.2813 53.6701 48.0498C53.4123 48.8183 53.0376 49.4947 52.5461 50.0791C52.0546 50.6635 51.4544 51.1318 50.7454 51.484C50.0363 51.8363 49.2306 52.0124 48.3282 52.0124C47.587 52.0124 46.886 51.8643 46.2253 51.5681C45.5647 51.2719 45.049 50.8676 44.6784 50.3553H44.63V57.4399H40.666V39.7163H44.4367V41.1812H44.5092C44.8798 40.7009 45.3914 40.2806 46.0441 39.9204C46.6967 39.5602 47.4661 39.38 48.3524 39.38C49.2226 39.38 50.0122 39.5482 50.7212 39.8844C51.4302 40.2206 52.0305 40.6769 52.5219 41.2533C53.0134 41.8297 53.3921 42.4981 53.658 43.2586C53.9239 44.0191 54.0568 44.8156 54.0568 45.6482ZM50.2136 45.6482C50.2136 45.2639 50.1532 44.8877 50.0323 44.5194C49.9115 44.1512 49.7342 43.827 49.5005 43.5468C49.2669 43.2666 48.9728 43.0385 48.6183 42.8623C48.2638 42.6862 47.8529 42.5982 47.3856 42.5982C46.9344 42.5982 46.5315 42.6862 46.177 42.8623C45.8225 43.0385 45.5204 43.2706 45.2706 43.5588C45.0208 43.847 44.8274 44.1752 44.6905 44.5435C44.5535 44.9117 44.485 45.2879 44.485 45.6722C44.485 46.0565 44.5535 46.4327 44.6905 46.8009C44.8274 47.1692 45.0208 47.4974 45.2706 47.7856C45.5204 48.0738 45.8225 48.3059 46.177 48.482C46.5315 48.6582 46.9344 48.7462 47.3856 48.7462C47.8529 48.7462 48.2638 48.6582 48.6183 48.482C48.9728 48.3059 49.2669 48.0738 49.5005 47.7856C49.7342 47.4974 49.9115 47.1652 50.0323 46.7889C50.1532 46.4127 50.2136 46.0324 50.2136 45.6482ZM69.3089 45.6482C69.3089 46.6248 69.1316 47.5094 68.7771 48.3019C68.4226 49.0945 67.9392 49.7669 67.3268 50.3193C66.7145 50.8716 66.0055 51.2999 65.1998 51.6041C64.3941 51.9083 63.5319 52.0604 62.6134 52.0604C61.711 52.0604 60.853 51.9083 60.0392 51.6041C59.2254 51.2999 58.5164 50.8716 57.9121 50.3193C57.3078 49.7669 56.8285 49.0945 56.4739 48.3019C56.1194 47.5094 55.9422 46.6248 55.9422 45.6482C55.9422 44.6715 56.1194 43.791 56.4739 43.0064C56.8285 42.2219 57.3078 41.5575 57.9121 41.0131C58.5164 40.4688 59.2254 40.0525 60.0392 39.7643C60.853 39.4761 61.711 39.332 62.6134 39.332C63.5319 39.332 64.3941 39.4761 65.1998 39.7643C66.0055 40.0525 66.7145 40.4688 67.3268 41.0131C67.9392 41.5575 68.4226 42.2219 68.7771 43.0064C69.1316 43.791 69.3089 44.6715 69.3089 45.6482ZM65.4898 45.6482C65.4898 45.2639 65.4254 44.8877 65.2964 44.5194C65.1675 44.1512 64.9822 43.827 64.7405 43.5468C64.4988 43.2666 64.2007 43.0385 63.8462 42.8623C63.4917 42.6862 63.0807 42.5982 62.6134 42.5982C62.1461 42.5982 61.7352 42.6862 61.3807 42.8623C61.0262 43.0385 60.7321 43.2666 60.4985 43.5468C60.2648 43.827 60.0875 44.1512 59.9667 44.5194C59.8458 44.8877 59.7854 45.2639 59.7854 45.6482C59.7854 46.0324 59.8458 46.4087 59.9667 46.7769C60.0875 47.1452 60.2688 47.4774 60.5105 47.7736C60.7523 48.0698 61.0504 48.3059 61.4049 48.482C61.7594 48.6582 62.1703 48.7462 62.6376 48.7462C63.1049 48.7462 63.5158 48.6582 63.8703 48.482C64.2249 48.3059 64.523 48.0698 64.7647 47.7736C65.0064 47.4774 65.1877 47.1452 65.3085 46.7769C65.4294 46.4087 65.4898 46.0324 65.4898 45.6482ZM76.1252 35.8978C76.1252 36.202 76.0647 36.4861 75.9439 36.7503C75.823 37.0145 75.6619 37.2426 75.4604 37.4348C75.259 37.6269 75.0173 37.779 74.7353 37.8911C74.4533 38.0031 74.1592 38.0592 73.8531 38.0592C73.2085 38.0592 72.6687 37.847 72.2336 37.4228C71.7985 36.9985 71.581 36.4901 71.581 35.8978C71.581 35.6096 71.6374 35.3334 71.7502 35.0692C71.863 34.805 72.0241 34.5769 72.2336 34.3848C72.4431 34.1926 72.6848 34.0365 72.9587 33.9164C73.2327 33.7964 73.5308 33.7363 73.8531 33.7363C74.1592 33.7363 74.4533 33.7924 74.7353 33.9044C75.0173 34.0165 75.259 34.1686 75.4604 34.3607C75.6619 34.5529 75.823 34.781 75.9439 35.0452C76.0647 35.3094 76.1252 35.5936 76.1252 35.8978ZM71.871 51.6762V39.7163H75.8351V51.6762H71.871ZM86.8813 51.6762V45.1438C86.8813 44.8076 86.8531 44.4874 86.7968 44.1832C86.7403 43.879 86.6477 43.6108 86.5188 43.3787C86.3899 43.1465 86.2086 42.9624 85.9749 42.8263C85.7413 42.6902 85.4472 42.6222 85.0927 42.6222C84.7382 42.6222 84.428 42.6902 84.1621 42.8263C83.8962 42.9624 83.6746 43.1505 83.4974 43.3907C83.3201 43.6308 83.1872 43.907 83.0985 44.2192C83.0099 44.5314 82.9656 44.8557 82.9656 45.1919V51.6762H78.9774V39.7163H82.8206V41.3734H82.8689C83.014 41.1172 83.2033 40.865 83.437 40.6169C83.6706 40.3687 83.9445 40.1566 84.2588 39.9804C84.573 39.8043 84.9154 39.6602 85.286 39.5482C85.6567 39.4361 86.0515 39.38 86.4704 39.38C87.2761 39.38 87.961 39.5241 88.525 39.8123C89.089 40.1005 89.5442 40.4728 89.8907 40.9291C90.2371 41.3854 90.4869 41.9097 90.64 42.5021C90.7931 43.0945 90.8696 43.6869 90.8696 44.2793V51.6762H86.8813ZM98.1693 42.6702V47.2332C98.1693 47.7936 98.2781 48.2139 98.4956 48.4941C98.7132 48.7742 99.1039 48.9143 99.6679 48.9143C99.8613 48.9143 100.067 48.8983 100.284 48.8663C100.502 48.8343 100.683 48.7862 100.828 48.7222L100.876 51.6041C100.603 51.7002 100.256 51.7842 99.8371 51.8563C99.4182 51.9283 98.9992 51.9643 98.5802 51.9643C97.7745 51.9643 97.0977 51.8643 96.5498 51.6641C96.002 51.464 95.5629 51.1758 95.2325 50.7996C94.9022 50.4233 94.6645 49.975 94.5195 49.4547C94.3744 48.9343 94.3019 48.354 94.3019 47.7135V42.6702H92.3682V39.7163H94.2777V36.5702H98.1693V39.7163H100.997V42.6702H98.1693ZM118.231 51.6762V45.1438C118.231 44.8076 118.207 44.4834 118.159 44.1712C118.111 43.859 118.022 43.5908 117.893 43.3667C117.764 43.1425 117.591 42.9624 117.373 42.8263C117.156 42.6902 116.87 42.6222 116.515 42.6222C116.177 42.6222 115.883 42.6942 115.633 42.8383C115.383 42.9824 115.174 43.1745 115.005 43.4147C114.835 43.6549 114.71 43.931 114.63 44.2433C114.549 44.5555 114.509 44.8797 114.509 45.2159V51.6762H110.545V44.8557C110.545 44.1672 110.408 43.6228 110.134 43.2226C109.86 42.8223 109.425 42.6222 108.829 42.6222C108.2 42.6222 107.713 42.8703 107.366 43.3667C107.02 43.863 106.847 44.4714 106.847 45.1919V51.6762H102.859V39.7163H106.702V41.3734C106.895 41.1172 107.076 40.869 107.294 40.6289C107.511 40.3887 107.773 40.1766 108.08 39.9925C108.386 39.8083 108.728 39.6602 109.107 39.5482C109.485 39.4361 109.9 39.38 110.352 39.38C111.222 39.38 111.959 39.5562 112.563 39.9084C113.168 40.2606 113.639 40.765 113.977 41.4214C114.38 40.797 114.896 40.3007 115.524 39.9324C116.153 39.5642 116.918 39.38 117.821 39.38C118.642 39.38 119.331 39.5281 119.887 39.8243C120.443 40.1205 120.89 40.5048 121.229 40.9771C121.567 41.4494 121.813 41.9778 121.966 42.5621C122.119 43.1465 122.196 43.7189 122.196 44.2793V51.6762H118.231ZM133.483 44.3273C133.483 43.7029 133.286 43.1665 132.891 42.7182C132.496 42.2699 131.904 42.0458 131.115 42.0458C130.728 42.0458 130.373 42.1058 130.051 42.2259C129.729 42.346 129.447 42.5101 129.205 42.7182C128.963 42.9264 128.77 43.1705 128.625 43.4507C128.48 43.7309 128.399 44.0231 128.383 44.3273H133.483ZM137.133 45.8403V46.3206C137.133 46.4807 137.125 46.6328 137.109 46.7769H128.383C128.416 47.1131 128.516 47.4173 128.685 47.6895C128.855 47.9617 129.072 48.1979 129.338 48.398C129.604 48.5981 129.902 48.7542 130.232 48.8663C130.563 48.9784 130.905 49.0344 131.26 49.0344C131.888 49.0344 132.42 48.9183 132.855 48.6862C133.29 48.454 133.645 48.1538 133.919 47.7856L136.674 49.5147C136.11 50.3313 135.365 50.9597 134.438 51.4C133.512 51.8403 132.436 52.0604 131.211 52.0604C130.309 52.0604 129.455 51.9203 128.649 51.6401C127.844 51.3599 127.139 50.9517 126.534 50.4153C125.93 49.879 125.455 49.2185 125.108 48.434C124.762 47.6495 124.588 46.7529 124.588 45.7442C124.588 44.7676 124.758 43.883 125.096 43.0905C125.434 42.298 125.894 41.6255 126.474 41.0732C127.054 40.5208 127.739 40.0925 128.528 39.7883C129.318 39.4841 130.172 39.332 131.091 39.332C131.977 39.332 132.791 39.4801 133.532 39.7763C134.273 40.0725 134.91 40.5008 135.441 41.0612C135.973 41.6215 136.388 42.302 136.686 43.1025C136.984 43.903 137.133 44.8156 137.133 45.8403ZM147.503 51.6762V45.1438C147.503 44.8076 147.475 44.4874 147.418 44.1832C147.362 43.879 147.269 43.6108 147.14 43.3787C147.011 43.1465 146.83 42.9624 146.596 42.8263C146.363 42.6902 146.069 42.6222 145.714 42.6222C145.36 42.6222 145.049 42.6902 144.784 42.8263C144.518 42.9624 144.296 43.1505 144.119 43.3907C143.942 43.6308 143.809 43.907 143.72 44.2192C143.631 44.5314 143.587 44.8557 143.587 45.1919V51.6762H139.599V39.7163H143.442V41.3734H143.49C143.635 41.1172 143.825 40.865 144.058 40.6169C144.292 40.3687 144.566 40.1566 144.88 39.9804C145.194 39.8043 145.537 39.6602 145.908 39.5482C146.278 39.4361 146.673 39.38 147.092 39.38C147.898 39.38 148.582 39.5241 149.146 39.8123C149.71 40.1005 150.166 40.4728 150.512 40.9291C150.859 41.3854 151.108 41.9097 151.261 42.5021C151.415 43.0945 151.491 43.6869 151.491 44.2793V51.6762H147.503ZM158.791 42.6702V47.2332C158.791 47.7936 158.9 48.2139 159.117 48.4941C159.335 48.7742 159.725 48.9143 160.289 48.9143C160.483 48.9143 160.688 48.8983 160.906 48.8663C161.123 48.8343 161.305 48.7862 161.45 48.7222L161.498 51.6041C161.224 51.7002 160.878 51.7842 160.459 51.8563C160.04 51.9283 159.621 51.9643 159.202 51.9643C158.396 51.9643 157.719 51.8643 157.171 51.6641C156.623 51.464 156.184 51.1758 155.854 50.7996C155.524 50.4233 155.286 49.975 155.141 49.4547C154.996 48.9343 154.923 48.354 154.923 47.7135V42.6702H152.99V39.7163H154.899V36.5702H158.791V39.7163H161.619V42.6702H158.791ZM168 49.5628C168 50.2352 167.762 50.7956 167.287 51.2439C166.812 51.6922 166.244 51.9163 165.583 51.9163C165.244 51.9163 164.926 51.8563 164.628 51.7362C164.33 51.6161 164.068 51.452 163.843 51.2439C163.617 51.0357 163.44 50.7916 163.311 50.5114C163.182 50.2312 163.117 49.923 163.117 49.5868C163.117 49.2666 163.182 48.9624 163.311 48.6742C163.44 48.386 163.617 48.1338 163.843 47.9177C164.068 47.7015 164.33 47.5294 164.628 47.4013C164.926 47.2732 165.244 47.2092 165.583 47.2092C166.244 47.2092 166.812 47.4334 167.287 47.8816C167.762 48.3299 168 48.8903 168 49.5628Z" fill="#2C3647"/>
</svg>
